<?xml version="1.0" standalone="no"?><!-- Generator: Gravit.io --><svg xmlns="http://www.w3.org/2000/svg" xmlns:xlink="http://www.w3.org/1999/xlink" style="isolation:isolate" viewBox="-2381.4 2209 538.4 147.236" width="538.4" height="147.236"><g id="computer"><g id="null"><g id="null"><g id="null"><path d=" M -2273.772 2240 L -2362.028 2240 C -2363.613 2240 -2365 2241.288 -2365 2242.972 L -2365 2304.286 C -2365 2305.871 -2363.712 2307.257 -2362.028 2307.257 L -2273.772 2307.257 C -2272.187 2307.257 -2270.8 2305.97 -2270.8 2304.286 L -2270.8 2242.972 C -2270.8 2241.288 -2272.088 2240 -2273.772 2240 Z  M -2317.85 2303.394 C -2319.237 2303.394 -2320.327 2302.305 -2320.327 2300.918 C -2320.327 2299.531 -2319.237 2298.442 -2317.85 2298.442 C -2316.464 2298.442 -2315.374 2299.531 -2315.374 2300.918 C -2315.374 2302.305 -2316.464 2303.394 -2317.85 2303.394 Z  M -2276.842 2294.479 L -2358.958 2294.479 L -2358.958 2246.042 L -2276.842 2246.042 L -2276.842 2294.479 Z " fill="rgb(70,70,70)"/><path d=" M -2299.625 2318.946 L -2304.874 2318.946 C -2305.37 2318.946 -2305.865 2318.55 -2306.063 2318.054 L -2308.539 2309.536 L -2327.261 2309.536 L -2329.737 2318.054 C -2329.935 2318.55 -2330.331 2318.946 -2330.926 2318.946 L -2336.175 2318.946 C -2336.869 2318.946 -2337.364 2319.441 -2337.364 2320.134 L -2337.364 2321.719 C -2337.364 2322.413 -2336.869 2322.908 -2336.175 2322.908 L -2299.724 2322.908 C -2299.03 2322.908 -2298.535 2322.413 -2298.535 2321.719 L -2298.535 2320.134 C -2298.436 2319.441 -2298.931 2318.946 -2299.625 2318.946 Z " fill="rgb(70,70,70)"/></g></g></g></g><g id="server"><path d=" M -1868.249 2265.789 L -1926.753 2265.789 C -1929.406 2265.789 -1931.564 2267.948 -1931.564 2270.602 L -1931.564 2283.399 C -1931.564 2286.052 -1929.406 2288.212 -1926.753 2288.212 L -1868.249 2288.212 C -1865.595 2288.212 -1863.436 2286.052 -1863.436 2283.399 L -1863.436 2270.601 C -1863.436 2267.948 -1865.596 2265.789 -1868.249 2265.789 Z  M -1867.789 2283.399 C -1867.789 2283.648 -1868 2283.859 -1868.249 2283.859 L -1926.753 2283.859 C -1927.001 2283.859 -1927.211 2283.648 -1927.211 2283.399 L -1927.211 2270.602 C -1927.211 2270.352 -1927.001 2270.142 -1926.753 2270.142 L -1868.249 2270.142 C -1868 2270.142 -1867.789 2270.352 -1867.789 2270.601 L -1867.789 2283.399 Z  M -1918.756 2273.881 C -1920.477 2273.881 -1921.876 2275.28 -1921.876 2277 C -1921.876 2278.72 -1920.477 2280.119 -1918.756 2280.119 C -1917.036 2280.119 -1915.637 2278.72 -1915.637 2277 C -1915.637 2275.28 -1917.036 2273.881 -1918.756 2273.881 Z  M -1910.05 2273.881 C -1911.771 2273.881 -1913.17 2275.28 -1913.17 2277 C -1913.17 2278.72 -1911.771 2280.119 -1910.05 2280.119 C -1908.33 2280.119 -1906.931 2278.72 -1906.931 2277 C -1906.931 2275.28 -1908.33 2273.881 -1910.05 2273.881 Z  M -1901.344 2273.881 C -1903.065 2273.881 -1904.464 2275.28 -1904.464 2277 C -1904.464 2278.72 -1903.065 2280.119 -1901.344 2280.119 C -1899.624 2280.119 -1898.225 2278.72 -1898.225 2277 C -1898.225 2275.28 -1899.624 2273.881 -1901.344 2273.881 Z  M -1868.249 2291.577 L -1926.753 2291.577 C -1929.406 2291.577 -1931.564 2293.736 -1931.564 2296.391 L -1931.564 2309.188 C -1931.564 2311.841 -1929.406 2314 -1926.753 2314 L -1868.249 2314 C -1865.595 2314 -1863.436 2311.841 -1863.436 2309.188 L -1863.436 2296.39 C -1863.436 2293.736 -1865.596 2291.577 -1868.249 2291.577 Z  M -1867.789 2309.188 C -1867.789 2309.436 -1868 2309.647 -1868.249 2309.647 L -1926.753 2309.647 C -1927.001 2309.647 -1927.211 2309.436 -1927.211 2309.188 L -1927.211 2296.391 C -1927.211 2296.141 -1927.001 2295.93 -1926.753 2295.93 L -1868.249 2295.93 C -1868 2295.93 -1867.789 2296.141 -1867.789 2296.39 L -1867.789 2309.188 Z  M -1918.756 2299.669 C -1920.477 2299.669 -1921.876 2301.068 -1921.876 2302.789 C -1921.876 2304.509 -1920.477 2305.908 -1918.756 2305.908 C -1917.036 2305.908 -1915.637 2304.509 -1915.637 2302.789 C -1915.637 2301.068 -1917.036 2299.669 -1918.756 2299.669 Z  M -1910.05 2299.669 C -1911.771 2299.669 -1913.17 2301.068 -1913.17 2302.789 C -1913.17 2304.509 -1911.771 2305.908 -1910.05 2305.908 C -1908.33 2305.908 -1906.931 2304.509 -1906.931 2302.789 C -1906.931 2301.068 -1908.33 2299.669 -1910.05 2299.669 Z  M -1901.344 2299.669 C -1903.065 2299.669 -1904.464 2301.068 -1904.464 2302.789 C -1904.464 2304.509 -1903.065 2305.908 -1901.344 2305.908 C -1899.624 2305.908 -1898.225 2304.509 -1898.225 2302.789 C -1898.225 2301.068 -1899.624 2299.669 -1901.344 2299.669 Z  M -1868.249 2240 L -1926.753 2240 C -1929.406 2240 -1931.564 2242.159 -1931.564 2244.813 L -1931.564 2257.61 C -1931.564 2260.264 -1929.406 2262.423 -1926.753 2262.423 L -1868.249 2262.423 C -1865.595 2262.423 -1863.436 2260.264 -1863.436 2257.61 L -1863.436 2244.813 C -1863.436 2242.159 -1865.596 2240 -1868.249 2240 Z  M -1867.789 2257.61 C -1867.789 2257.859 -1868 2258.07 -1868.249 2258.07 L -1926.753 2258.07 C -1927.001 2258.07 -1927.211 2257.859 -1927.211 2257.61 L -1927.211 2244.813 C -1927.211 2244.564 -1927.001 2244.353 -1926.753 2244.353 L -1868.249 2244.353 C -1868 2244.353 -1867.789 2244.564 -1867.789 2244.813 L -1867.789 2257.61 Z  M -1918.756 2248.091 C -1920.477 2248.091 -1921.876 2249.49 -1921.876 2251.211 C -1921.876 2252.931 -1920.477 2254.33 -1918.756 2254.33 C -1917.036 2254.33 -1915.637 2252.931 -1915.637 2251.211 C -1915.637 2249.49 -1917.036 2248.091 -1918.756 2248.091 Z  M -1910.05 2248.091 C -1911.771 2248.091 -1913.17 2249.49 -1913.17 2251.211 C -1913.17 2252.931 -1911.771 2254.33 -1910.05 2254.33 C -1908.33 2254.33 -1906.931 2252.931 -1906.931 2251.211 C -1906.931 2249.49 -1908.33 2248.091 -1910.05 2248.091 Z  M -1901.344 2248.091 C -1903.065 2248.091 -1904.464 2249.49 -1904.464 2251.211 C -1904.464 2252.931 -1903.065 2254.33 -1901.344 2254.33 C -1899.624 2254.33 -1898.225 2252.931 -1898.225 2251.211 C -1898.225 2249.49 -1899.624 2248.091 -1901.344 2248.091 Z " fill="rgb(70,70,70)"/></g><g transform="matrix(1,0,0,1,-2381.4,2329)"><text transform="matrix(1,0,0,1,0,21.377)" style="font-family:&quot;Open Sans&quot;;font-weight:400;font-size:20px;font-style:normal;fill:#5d5d5d;stroke:none;">Web Browser</text></g><g transform="matrix(1,0,0,1,-1952,2324.546)"><text transform="matrix(1,0,0,1,0,21.377)" style="font-family:&quot;Open Sans&quot;;font-weight:400;font-size:20px;font-style:normal;fill:#5d5d5d;stroke:none;">Web Server</text></g><g transform="matrix(1,0,0,1,-2142.3,2329)"><text transform="matrix(1,0,0,1,0,21.377)" style="font-family:&quot;Open Sans&quot;;font-weight:400;font-size:20px;font-style:normal;fill:#5d5d5d;stroke:none;">Request</text></g><g transform="matrix(1,0,0,1,-2149.8,2209)"><text transform="matrix(1,0,0,1,0,21.377)" style="font-family:&quot;Open Sans&quot;;font-weight:400;font-size:20px;font-style:normal;fill:#5d5d5d;stroke:none;">Response</text></g><path d="M -2003.787 2315.964 L -2222 2315.964 L -2222 2323.964 L -2003.787 2323.964 L -2003.787 2333.928 L -1991.693 2326.946 L -1979.6 2319.964 L -1991.693 2312.982 L -2003.787 2306 L -2003.787 2315.964 Z" style="stroke:none;fill:#464646;stroke-miterlimit:10;"/><path d="M -2197.813 2250.964 L -1979.6 2250.964 L -1979.6 2242.964 L -2197.813 2242.964 L -2197.813 2233 L -2209.907 2239.982 L -2222 2246.964 L -2209.907 2253.946 L -2197.813 2260.928 L -2197.813 2250.964 Z" style="stroke:none;fill:#464646;stroke-miterlimit:10;"/></svg>