<?xml version="1.0" standalone="no"?><!-- Generator: Gravit.io --><svg xmlns="http://www.w3.org/2000/svg" xmlns:xlink="http://www.w3.org/1999/xlink" style="isolation:isolate" viewBox="-878 -478 1052 206.125" width="1052" height="206.125"><g id="person"><g id="Group"><path d=" M -835.971 -367.882 C -835.971 -354.647 -825.235 -343.912 -812 -343.912 C -798.765 -343.912 -788.029 -354.647 -788.029 -367.882 C -788.029 -381.118 -798.765 -392 -812 -392 C -825.235 -392 -835.971 -381.265 -835.971 -367.882 Z " fill="rgb(64,64,64)"/><path d=" M -812 -339.206 C -834.059 -339.206 -852 -321.265 -852 -299.206 L -852 -286.412 C -842.735 -280.529 -827.882 -277 -812 -277 C -796.118 -277 -781.265 -280.529 -772 -286.412 L -772 -299.206 C -772 -321.265 -789.941 -339.206 -812 -339.206 Z " fill="rgb(64,64,64)"/></g></g><g id="person"><g id="Group"><path d=" M -720.971 -367.882 C -720.971 -354.647 -710.235 -343.912 -697 -343.912 C -683.765 -343.912 -673.029 -354.647 -673.029 -367.882 C -673.029 -381.118 -683.765 -392 -697 -392 C -710.235 -392 -720.971 -381.265 -720.971 -367.882 Z " fill="rgb(64,64,64)"/><path d=" M -697 -339.206 C -719.059 -339.206 -737 -321.265 -737 -299.206 L -737 -286.412 C -727.735 -280.529 -712.882 -277 -697 -277 C -681.118 -277 -666.265 -280.529 -657 -286.412 L -657 -299.206 C -657 -321.265 -674.941 -339.206 -697 -339.206 Z " fill="rgb(64,64,64)"/></g></g><g id="person"><g id="Group"><path d=" M -605.971 -367.882 C -605.971 -354.647 -595.235 -343.912 -582 -343.912 C -568.765 -343.912 -558.029 -354.647 -558.029 -367.882 C -558.029 -381.118 -568.765 -392 -582 -392 C -595.235 -392 -605.971 -381.265 -605.971 -367.882 Z " fill="rgb(64,64,64)"/><path d=" M -582 -339.206 C -604.059 -339.206 -622 -321.265 -622 -299.206 L -622 -286.412 C -612.735 -280.529 -597.882 -277 -582 -277 C -566.118 -277 -551.265 -280.529 -542 -286.412 L -542 -299.206 C -542 -321.265 -559.941 -339.206 -582 -339.206 Z " fill="rgb(64,64,64)"/></g></g><g transform="matrix(1,0,0,1,-878,-478)"><text transform="matrix(1,0,0,1,10.204,38.479)" style="font-family:&quot;Open Sans&quot;;font-weight:400;font-size:36px;font-style:normal;fill:#404040;stroke:none;">Teams of 3 students</text></g><g transform="matrix(1,0,0,1,-481.3,-478)"><text transform="matrix(1,0,0,1,22.778,38.479)" style="font-family:&quot;Open Sans&quot;;font-weight:400;font-size:36px;font-style:normal;fill:#404040;stroke:none;">One joint project</text></g><g transform="matrix(1,0,0,1,-106.966,-478)"><text transform="matrix(1,0,0,1,20.075,38.479)" style="font-family:&quot;Open Sans&quot;;font-weight:400;font-size:36px;font-style:normal;fill:#404040;stroke:none;">Week by week</text></g><g id="rocket"><path d=" M -254.944 -395.228 C -255.024 -395.772 -255.529 -396.277 -256.073 -396.357 C -322.069 -405.91 -356.102 -323.255 -356.102 -323.255 L -328.045 -295.197 C -328.045 -295.197 -245.389 -329.231 -254.944 -395.228 Z  M -306.035 -364.906 C -300.612 -370.328 -291.817 -370.328 -286.395 -364.906 C -280.973 -359.484 -280.973 -350.689 -286.395 -345.265 C -291.818 -339.842 -300.613 -339.842 -306.037 -345.264 C -311.459 -350.687 -311.459 -359.481 -306.035 -364.906 Z " fill="rgb(64,64,64)"/><path d=" M -290.049 -272.164 L -281.279 -280.933 C -280.892 -281.319 -280.65 -282.071 -280.74 -282.614 L -286.189 -315.418 C -296.809 -306.52 -307.538 -300.029 -315.206 -295.921 L -291.452 -272.165 C -291.064 -271.778 -290.436 -271.778 -290.049 -272.164 Z " fill="rgb(64,64,64)"/><path d=" M -335.881 -365.109 L -368.686 -370.558 C -369.228 -370.648 -369.98 -370.407 -370.367 -370.019 L -379.136 -361.249 C -379.521 -360.863 -379.521 -360.234 -379.134 -359.846 L -355.379 -336.092 C -351.27 -343.76 -344.778 -354.489 -335.881 -365.109 Z " fill="rgb(64,64,64)"/><path d=" M -340.758 -287.476 C -338.251 -289.981 -336.747 -293.101 -336.214 -296.351 L -354.949 -315.086 C -358.198 -314.553 -361.318 -313.048 -363.823 -310.542 C -372.795 -301.57 -368.115 -283.184 -368.115 -283.184 C -368.115 -283.184 -349.73 -278.504 -340.758 -287.476 Z " fill="rgb(64,64,64)"/></g><g id="brick_by_brick"><path d=" M 1.032 -313.882 L -35.457 -313.882 C -37.425 -313.882 -39.017 -312.287 -39.017 -310.322 L -39.017 -290.446 C -39.017 -288.481 -37.425 -286.886 -35.457 -286.886 L 1.032 -286.886 C 3 -286.886 4.592 -288.481 4.592 -290.446 L 4.592 -310.322 C 4.592 -312.289 2.998 -313.882 1.032 -313.882 Z " fill="rgb(64,64,64)"/><path d=" M 51.762 -313.882 L 15.272 -313.882 C 13.305 -313.882 11.712 -312.287 11.712 -310.322 L 11.712 -290.446 C 11.712 -288.481 13.305 -286.886 15.272 -286.886 L 51.762 -286.886 C 53.727 -286.886 55.322 -288.481 55.322 -290.446 L 55.322 -310.322 C 55.322 -312.289 53.727 -313.882 51.762 -313.882 Z " fill="rgb(64,64,64)"/><path d=" M 102.491 -313.882 L 66.002 -313.882 C 64.036 -313.882 62.442 -312.287 62.442 -310.322 L 62.442 -290.446 C 62.442 -288.481 64.036 -286.886 66.002 -286.886 L 102.491 -286.886 C 104.456 -286.886 106.051 -288.481 106.051 -290.446 L 106.051 -310.322 C 106.051 -312.289 104.456 -313.882 102.491 -313.882 Z " fill="rgb(64,64,64)"/><path d=" M -10.094 -321.002 L 26.396 -321.002 C 28.363 -321.002 29.956 -322.597 29.956 -324.562 L 29.956 -344.438 C 29.956 -346.406 28.363 -347.998 26.396 -347.998 L -10.094 -347.998 C -12.061 -347.998 -13.654 -346.406 -13.654 -344.438 L -13.654 -324.562 C -13.654 -322.597 -12.061 -321.002 -10.094 -321.002 Z " fill="rgb(64,64,64)"/><path d=" M 37.076 -344.438 L 37.076 -324.562 C 37.076 -322.597 38.671 -321.002 40.636 -321.002 L 77.125 -321.002 C 79.09 -321.002 80.685 -322.597 80.685 -324.562 L 80.685 -344.438 C 80.685 -346.406 79.09 -347.998 77.125 -347.998 L 40.636 -347.998 C 38.671 -347.998 37.076 -346.406 37.076 -344.438 Z " fill="rgb(64,64,64)"/><path d=" M 15.272 -355.118 L 51.762 -355.118 C 53.727 -355.118 55.322 -356.711 55.322 -358.678 L 55.322 -378.554 C 55.322 -380.522 53.727 -382.114 51.762 -382.114 L 15.272 -382.114 C 13.305 -382.114 11.712 -380.522 11.712 -378.554 L 11.712 -358.678 C 11.712 -356.713 13.305 -355.118 15.272 -355.118 Z " fill="rgb(64,64,64)"/></g></svg>