<?xml version="1.0" standalone="no"?><!-- Generator: Gravit.io --><svg xmlns="http://www.w3.org/2000/svg" xmlns:xlink="http://www.w3.org/1999/xlink" style="isolation:isolate" viewBox="480 267.861 640 348.279" width="640" height="348.279"><path d="M 485.168 267.861 L 662.832 267.861 C 665.684 267.861 668 270.176 668 273.028 L 668 345.693 C 668 348.545 665.684 350.861 662.832 350.861 L 485.168 350.861 C 482.316 350.861 480 348.545 480 345.693 L 480 273.028 C 480 270.176 482.316 267.861 485.168 267.861 Z" style="stroke:none;fill:#DE036B;stroke-miterlimit:10;opacity:0.75;"/><path d="M 485.168 396.861 L 662.832 396.861 C 665.684 396.861 668 399.176 668 402.028 L 668 474.693 C 668 477.545 665.684 479.861 662.832 479.861 L 485.168 479.861 C 482.316 479.861 480 477.545 480 474.693 L 480 402.028 C 480 399.176 482.316 396.861 485.168 396.861 Z" style="stroke:none;fill:#DE036B;stroke-miterlimit:10;opacity:0.75;"/><g transform="matrix(1,0,0,1,491.5,295.743)"><text transform="matrix(1,0,0,1,0.401,21.377)" style="font-family:&quot;Open Sans&quot;;font-weight:400;font-size:20px;font-style:normal;fill:#ffffff;stroke:none;">Level of Ambition</text></g><g transform="matrix(1,0,0,1,488,424.743)"><text transform="matrix(1,0,0,1,0.166,21.377)" style="font-family:&quot;Open Sans&quot;;font-weight:400;font-size:20px;font-style:normal;fill:#ffffff;stroke:none;">Depth and Quality</text></g><path d="M 485.168 525.861 L 662.832 525.861 C 665.684 525.861 668 528.176 668 531.028 L 668 603.693 C 668 606.545 665.684 608.861 662.832 608.861 L 485.168 608.861 C 482.316 608.861 480 606.545 480 603.693 L 480 531.028 C 480 528.176 482.316 525.861 485.168 525.861 Z" style="stroke:none;fill:#DE036B;stroke-miterlimit:10;opacity:0.75;"/><g transform="matrix(1,0,0,1,513,553.743)"><text transform="matrix(1,0,0,1,0.439,21.377)" style="font-family:&quot;Open Sans&quot;;font-weight:400;font-size:20px;font-style:normal;fill:#ffffff;stroke:none;">Presentation</text></g><g transform="matrix(1,0,0,1,686,550.772)"><text transform="matrix(1,0,0,1,0,12.826)" style="font-family:&quot;Open Sans&quot;;font-weight:400;font-size:12px;font-style:normal;fill:#000000;stroke:none;">Quality of the document</text><text transform="matrix(1,0,0,1,0,29.168)" style="font-family:&quot;Open Sans&quot;;font-weight:400;font-size:12px;font-style:normal;fill:#000000;stroke:none;">Quality of the oral presentation</text></g><g transform="matrix(1,0,0,1,686,422.019)"><text transform="matrix(1,0,0,1,0,12.826)" style="font-family:&quot;Open Sans&quot;;font-weight:400;font-size:12px;font-style:normal;fill:#000000;stroke:none;">Structured approach</text><text transform="matrix(1,0,0,1,0,29.168)" style="font-family:&quot;Open Sans&quot;;font-weight:400;font-size:12px;font-style:normal;fill:#000000;stroke:none;">Breadth and depth of results</text></g><g transform="matrix(1,0,0,1,686,295.743)"><text transform="matrix(1,0,0,1,0,12.826)" style="font-family:&quot;Open Sans&quot;;font-weight:400;font-size:12px;font-style:normal;fill:#000000;stroke:none;">Novelty of proposed work</text><text transform="matrix(1,0,0,1,0,29.168)" style="font-family:&quot;Open Sans&quot;;font-weight:400;font-size:12px;font-style:normal;fill:#000000;stroke:none;">Complexity of project</text></g><g transform="matrix(1,0,0,1,922,285.295)"><text transform="matrix(1,0,0,1,0,12.826)" style="font-family:&quot;Open Sans&quot;;font-weight:700;font-size:12px;font-style:normal;fill:#000000;stroke:none;">Presets the upper bound for </text><text transform="matrix(1,0,0,1,0,29.168)" style="font-family:&quot;Open Sans&quot;;font-weight:700;font-size:12px;font-style:normal;fill:#000000;stroke:none;">your grade. Little ambition </text><text transform="matrix(1,0,0,1,0,45.51)" style="font-family:&quot;Open Sans&quot;;font-weight:700;font-size:12px;font-style:normal;fill:#000000;stroke:none;">forbids very good results.</text></g><g transform="matrix(1,0,0,1,922,413.802)"><text transform="matrix(1,0,0,1,0,12.826)" style="font-family:&quot;Open Sans&quot;;font-weight:700;font-size:12px;font-style:normal;fill:#000000;stroke:none;">The foundation for your </text><text transform="matrix(1,0,0,1,0,29.168)" style="font-family:&quot;Open Sans&quot;;font-weight:700;font-size:12px;font-style:normal;fill:#000000;stroke:none;">grade. Your work can only be </text><text transform="matrix(1,0,0,1,0,45.51)" style="font-family:&quot;Open Sans&quot;;font-weight:700;font-size:12px;font-style:normal;fill:#000000;stroke:none;">as good as your results.</text></g><g transform="matrix(1,0,0,1,921,543.772)"><text transform="matrix(1,0,0,1,0,12.826)" style="font-family:&quot;Open Sans&quot;;font-weight:700;font-size:12px;font-style:normal;fill:#000000;stroke:none;">The topping. Make great </text><text transform="matrix(1,0,0,1,0,29.168)" style="font-family:&quot;Open Sans&quot;;font-weight:700;font-size:12px;font-style:normal;fill:#000000;stroke:none;">results shine. It won't make </text><text transform="matrix(1,0,0,1,0,45.51)" style="font-family:&quot;Open Sans&quot;;font-weight:700;font-size:12px;font-style:normal;fill:#000000;stroke:none;">poor results better.</text></g><polygon points="592.735,357.636,574,390.086,555.265,357.636" fill="rgb(235,235,235)"/><polygon points="874,267.861,894,309.361,874,350.861" fill="rgb(235,235,235)"/><polygon points="874,396.861,894,438.361,874,479.861" fill="rgb(235,235,235)"/><polygon points="874,525.861,894,567.361,874,608.861" fill="rgb(235,235,235)"/><polygon points="592.735,487.861,574,520.311,555.265,487.861" fill="rgb(235,235,235)"/></svg>