<?xml version="1.0" standalone="no"?><!-- Generator: Gravit.io --><svg xmlns="http://www.w3.org/2000/svg" xmlns:xlink="http://www.w3.org/1999/xlink" style="isolation:isolate" viewBox="553 90.764 558.088 461.282" width="558.088" height="461.282"><path d="M 740.783 474.045 L 988.717 474.045 C 1006.673 474.045 1021.25 488.623 1021.25 506.578 L 1021.25 519.513 C 1021.25 537.468 1006.673 552.045 988.717 552.045 L 740.783 552.045 C 722.827 552.045 708.25 537.468 708.25 519.513 L 708.25 506.578 C 708.25 488.623 722.827 474.045 740.783 474.045 Z" style="stroke:none;fill:#04A8B0;stroke-miterlimit:10;"/><path d="M 574.68 474.045 L 670.32 474.045 C 682.286 474.045 692 483.76 692 495.725 L 692 530.366 C 692 542.331 682.286 552.045 670.32 552.045 L 574.68 552.045 C 562.714 552.045 553 542.331 553 530.366 L 553 495.725 C 553 483.76 562.714 474.045 574.68 474.045 Z" style="stroke:none;fill:#04A8B0;stroke-miterlimit:10;"/><path d="M 574.41 379.618 L 670.59 379.618 C 682.407 379.618 692 389.212 692 401.028 L 692 436.208 C 692 448.025 682.407 457.618 670.59 457.618 L 574.41 457.618 C 562.593 457.618 553 448.025 553 436.208 L 553 401.028 C 553 389.212 562.593 379.618 574.41 379.618 Z" style="stroke:none;fill:#EBEBEB;stroke-miterlimit:10;"/><g transform="matrix(1,0,0,1,762.75,499.427)"><text transform="matrix(1,0,0,1,0,21.377)" style="font-family:&quot;Open Sans&quot;;font-weight:400;font-size:20px;font-style:normal;fill:#000000;stroke:none;">Wirtschaftsinformatik</text></g><path d="M 742.798 379.618 L 986.702 379.618 C 1004.528 379.618 1019 394.09 1019 411.916 L 1019 425.32 C 1019 443.146 1004.528 457.618 986.702 457.618 L 742.798 457.618 C 724.972 457.618 710.5 443.146 710.5 425.32 L 710.5 411.916 C 710.5 394.09 724.972 379.618 742.798 379.618 Z" style="stroke:none;fill:#EBEBEB;stroke-miterlimit:10;"/><g transform="matrix(1,0,0,1,743.25,405)"><text transform="matrix(1,0,0,1,0,21.377)" style="font-family:&quot;Open Sans&quot;;font-weight:400;font-size:20px;font-style:normal;fill:#000000;stroke:none;">Information Management</text></g><path d="M 742.798 285.191 L 986.702 285.191 C 1004.528 285.191 1019 299.663 1019 317.489 L 1019 330.893 C 1019 348.719 1004.528 363.191 986.702 363.191 L 742.798 363.191 C 724.972 363.191 710.5 348.719 710.5 330.893 L 710.5 317.489 C 710.5 299.663 724.972 285.191 742.798 285.191 Z" style="stroke:none;fill:#EBEBEB;stroke-miterlimit:10;"/><g transform="matrix(1,0,0,1,751.75,310.573)"><text transform="matrix(1,0,0,1,0,21.377)" style="font-family:&quot;Open Sans&quot;;font-weight:400;font-size:20px;font-style:normal;fill:#000000;stroke:none;">Impacts of Digitalization</text></g><g transform="matrix(1,0,0,1,566.5,499.427)"><text transform="matrix(1,0,0,1,0,21.377)" style="font-family:&quot;Open Sans&quot;;font-weight:400;font-size:20px;font-style:normal;fill:#000000;stroke:none;">2. Semester</text></g><g transform="matrix(1,0,0,1,566.5,405)"><text transform="matrix(1,0,0,1,0,21.377)" style="font-family:&quot;Open Sans&quot;;font-weight:400;font-size:20px;font-style:normal;fill:#000000;stroke:none;">3. Semester</text></g><g id="null"><path d="M 574.41 285.191 L 670.59 285.191 C 682.407 285.191 692 294.784 692 306.601 L 692 341.781 C 692 353.597 682.407 363.191 670.59 363.191 L 574.41 363.191 C 562.593 363.191 553 353.597 553 341.781 L 553 306.601 C 553 294.784 562.593 285.191 574.41 285.191 Z" style="stroke:none;fill:#EBEBEB;stroke-miterlimit:10;"/><g transform="matrix(1,0,0,1,566.5,310.573)"><text transform="matrix(1,0,0,1,0,21.377)" style="font-family:&quot;Open Sans&quot;;font-weight:400;font-size:20px;font-style:normal;fill:#000000;stroke:none;">4. Semester</text></g></g><path d="M 742.798 188 L 986.702 188 C 1004.528 188 1019 202.472 1019 220.298 L 1019 233.702 C 1019 251.528 1004.528 266 986.702 266 L 742.798 266 C 724.972 266 710.5 251.528 710.5 233.702 L 710.5 220.298 C 710.5 202.472 724.972 188 742.798 188 Z" style="stroke:none;fill:#EBEBEB;stroke-miterlimit:10;"/><g transform="matrix(1,0,0,1,784.25,213.382)"><text transform="matrix(1,0,0,1,0,21.377)" style="font-family:&quot;Open Sans&quot;;font-weight:400;font-size:20px;font-style:normal;fill:#000000;stroke:none;">Applied Analytics</text></g><path d="M 742.798 95.382 L 986.702 95.382 C 1004.528 95.382 1019 109.854 1019 127.68 L 1019 141.084 C 1019 158.91 1004.528 173.382 986.702 173.382 L 742.798 173.382 C 724.972 173.382 710.5 158.91 710.5 141.084 L 710.5 127.68 C 710.5 109.854 724.972 95.382 742.798 95.382 Z" style="stroke:none;fill:#EBEBEB;stroke-miterlimit:10;"/><g transform="matrix(1,0,0,1,784.75,120.764)"><text transform="matrix(1,0,0,1,0,21.377)" style="font-family:&quot;Open Sans&quot;;font-weight:400;font-size:20px;font-style:normal;fill:#000000;stroke:none;">Web Engineering</text></g><g id="null"><path d="M 585.343 90.764 L 659.657 90.764 C 677.508 90.764 692 105.256 692 123.106 L 692 236.421 C 692 254.271 677.508 268.764 659.657 268.764 L 585.343 268.764 C 567.492 268.764 553 254.271 553 236.421 L 553 123.106 C 553 105.256 567.492 90.764 585.343 90.764 Z" style="stroke:none;fill:#EBEBEB;stroke-miterlimit:10;"/><g transform="matrix(1,0,0,1,566.5,166.146)"><text transform="matrix(1,0,0,1,0,21.377)" style="font-family:&quot;Open Sans&quot;;font-weight:400;font-size:20px;font-style:normal;fill:#000000;stroke:none;">5. Semester</text></g></g><path d=" M 1055.794 510.899 L 1049.804 516.155 L 1050.739 524.069 L 1043.889 519.997 L 1036.651 523.331 L 1038.407 515.558 L 1033 509.705 L 1040.935 508.973 L 1044.831 502.022 L 1047.979 509.342 L 1055.794 510.899 Z " fill="rgb(4,168,176)"/><path d=" M 1110.382 224.866 L 1104.393 230.122 L 1105.327 238.036 L 1098.477 233.963 L 1091.239 237.297 L 1092.996 229.525 L 1087.588 223.671 L 1095.523 222.94 L 1099.419 215.988 L 1102.567 223.309 L 1110.382 224.866 Z " fill="rgb(4,168,176)"/><path d=" M 1055.794 416.472 L 1049.804 421.728 L 1050.739 429.642 L 1043.889 425.57 L 1036.651 428.904 L 1038.407 421.131 L 1033 415.278 L 1040.935 414.546 L 1044.831 407.594 L 1047.979 414.915 L 1055.794 416.472 Z " fill="rgb(4,168,176)"/><path d=" M 1083.794 416.472 L 1077.804 421.728 L 1078.739 429.642 L 1071.889 425.57 L 1064.651 428.904 L 1066.407 421.131 L 1061 415.278 L 1068.935 414.546 L 1072.831 407.594 L 1075.979 414.915 L 1083.794 416.472 Z " fill="rgb(4,168,176)"/><path d=" M 1055.794 322.045 L 1049.804 327.301 L 1050.739 335.215 L 1043.889 331.142 L 1036.651 334.476 L 1038.407 326.704 L 1033 320.85 L 1040.935 320.119 L 1044.831 313.167 L 1047.979 320.488 L 1055.794 322.045 Z " fill="rgb(4,168,176)"/><path d=" M 1083.794 322.045 L 1077.804 327.301 L 1078.739 335.215 L 1071.889 331.142 L 1064.651 334.476 L 1066.407 326.704 L 1061 320.85 L 1068.935 320.119 L 1072.831 313.167 L 1075.979 320.488 L 1083.794 322.045 Z " fill="rgb(4,168,176)"/><path d=" M 1055.794 224.866 L 1049.804 230.122 L 1050.739 238.036 L 1043.889 233.963 L 1036.651 237.297 L 1038.407 229.525 L 1033 223.671 L 1040.935 222.94 L 1044.831 215.988 L 1047.979 223.309 L 1055.794 224.866 Z " fill="rgb(4,168,176)"/><path d=" M 1083.794 224.866 L 1077.804 230.122 L 1078.739 238.036 L 1071.889 233.963 L 1064.651 237.297 L 1066.407 229.525 L 1061 223.671 L 1068.935 222.94 L 1072.831 215.988 L 1075.979 223.309 L 1083.794 224.866 Z " fill="rgb(4,168,176)"/><path d=" M 1111.088 132.236 L 1105.099 137.492 L 1106.033 145.406 L 1099.183 141.333 L 1091.945 144.667 L 1093.701 136.895 L 1088.294 131.041 L 1096.229 130.31 L 1100.125 123.358 L 1103.273 130.679 L 1111.088 132.236 Z " fill="rgb(4,168,176)"/><path d=" M 1056.5 132.236 L 1050.51 137.492 L 1051.445 145.406 L 1044.595 141.333 L 1037.357 144.667 L 1039.113 136.895 L 1033.706 131.041 L 1041.641 130.31 L 1045.537 123.358 L 1048.685 130.679 L 1056.5 132.236 Z " fill="rgb(4,168,176)"/><path d=" M 1084.5 132.236 L 1078.51 137.492 L 1079.445 145.406 L 1072.595 141.333 L 1065.357 144.667 L 1067.113 136.895 L 1061.706 131.041 L 1069.641 130.31 L 1073.537 123.358 L 1076.685 130.679 L 1084.5 132.236 Z " fill="rgb(4,168,176)"/></svg>