<?xml version="1.0" standalone="no"?><!-- Generator: Gravit.io --><svg xmlns="http://www.w3.org/2000/svg" xmlns:xlink="http://www.w3.org/1999/xlink" style="isolation:isolate" viewBox="186.301 263.191 965.015 278.5" width="965.015" height="278.5"><path d="M 221.343 263.769 L 295.657 263.769 C 313.508 263.769 328 278.261 328 296.112 L 328 409.426 C 328 427.277 313.508 441.769 295.657 441.769 L 221.343 441.769 C 203.492 441.769 189 427.277 189 409.426 L 189 296.112 C 189 278.261 203.492 263.769 221.343 263.769 Z" style="stroke:none;fill:#EBEBEB;stroke-miterlimit:10;"/><path d="M 366.333 463.191 L 614.268 463.191 C 632.223 463.191 646.801 477.768 646.801 495.724 L 646.801 508.658 C 646.801 526.613 632.223 541.191 614.268 541.191 L 366.333 541.191 C 348.378 541.191 333.801 526.613 333.801 508.658 L 333.801 495.724 C 333.801 477.768 348.378 463.191 366.333 463.191 Z" style="stroke:none;fill:#A6A6A6;stroke-miterlimit:10;"/><path d="M 208.48 463.191 L 304.121 463.191 C 316.086 463.191 325.801 472.905 325.801 484.871 L 325.801 519.511 C 325.801 531.477 316.086 541.191 304.121 541.191 L 208.48 541.191 C 196.515 541.191 186.801 531.477 186.801 519.511 L 186.801 484.871 C 186.801 472.905 196.515 463.191 208.48 463.191 Z" style="stroke:none;fill:#A6A6A6;stroke-miterlimit:10;"/><g transform="matrix(1,0,0,1,388.301,488.573)"><text transform="matrix(1,0,0,1,0,21.377)" style="font-family:&quot;Open Sans&quot;;font-weight:400;font-size:20px;font-style:normal;fill:#000000;stroke:none;">Wirtschaftsinformatik</text></g><path d="M 370.599 363.769 L 614.502 363.769 C 632.328 363.769 646.801 378.241 646.801 396.067 L 646.801 409.471 C 646.801 427.297 632.328 441.769 614.502 441.769 L 370.599 441.769 C 352.773 441.769 338.301 427.297 338.301 409.471 L 338.301 396.067 C 338.301 378.241 352.773 363.769 370.599 363.769 Z" style="stroke:none;fill:#EBEBEB;stroke-miterlimit:10;"/><g transform="matrix(1,0,0,1,371.051,379.618)"><text transform="matrix(1,0,0,1,0,21.377)" style="font-family:&quot;Open Sans&quot;;font-weight:400;font-size:20px;font-style:normal;fill:#000000;stroke:none;">Information Management</text><text transform="matrix(1,0,0,1,36.804,42.2)" style="font-family:&quot;Open Sans&quot;;font-weight:400;font-size:14px;font-style:normal;fill:#000000;stroke:none;">(Data Management &amp; BI I)</text></g><path d="M 875.114 363.769 L 1119.018 363.769 C 1136.843 363.769 1151.316 378.241 1151.316 396.067 L 1151.316 409.471 C 1151.316 427.297 1136.843 441.769 1119.018 441.769 L 875.114 441.769 C 857.288 441.769 842.816 427.297 842.816 409.471 L 842.816 396.067 C 842.816 378.241 857.288 363.769 875.114 363.769 Z" style="stroke:none;fill:#EBEBEB;stroke-miterlimit:10;"/><g transform="matrix(1,0,0,1,896.566,375.533)"><text transform="matrix(1,0,0,1,0,21.377)" style="font-family:&quot;Open Sans&quot;;font-weight:400;font-size:20px;font-style:normal;fill:#000000;stroke:none;">Business Information</text><text transform="matrix(1,0,0,1,60.989,48.613)" style="font-family:&quot;Open Sans&quot;;font-weight:400;font-size:20px;font-style:normal;fill:#000000;stroke:none;">Systems</text></g><path d="M 875.114 463.191 L 1119.018 463.191 C 1136.843 463.191 1151.316 477.663 1151.316 495.489 L 1151.316 508.893 C 1151.316 526.719 1136.843 541.191 1119.018 541.191 L 875.114 541.191 C 857.288 541.191 842.816 526.719 842.816 508.893 L 842.816 495.489 C 842.816 477.663 857.288 463.191 875.114 463.191 Z" style="stroke:none;fill:#EBEBEB;stroke-miterlimit:10;"/><g transform="matrix(1,0,0,1,871.066,479.04)"><text transform="matrix(1,0,0,1,13.081,21.377)" style="font-family:&quot;Open Sans&quot;;font-weight:400;font-size:20px;font-style:normal;fill:#000000;stroke:none;">Impacts of Digitalization</text><text transform="matrix(1,0,0,1,0.159,42.2)" style="font-family:&quot;Open Sans&quot;;font-weight:400;font-size:14px;font-style:normal;fill:#000000;stroke:none;">(Organization, Digitization, Innovation)</text></g><g transform="matrix(1,0,0,1,200.301,488.573)"><text transform="matrix(1,0,0,1,0,21.377)" style="font-family:&quot;Open Sans&quot;;font-weight:400;font-size:20px;font-style:normal;fill:#000000;stroke:none;">2. Semester</text></g><g transform="matrix(1,0,0,1,213,324.955)"><text transform="matrix(1,0,0,1,21.473,21.377)" style="font-family:&quot;Open Sans&quot;;font-weight:400;font-size:20px;font-style:normal;fill:#000000;stroke:none;">3./5. </text><text transform="matrix(1,0,0,1,0.496,48.613)" style="font-family:&quot;Open Sans&quot;;font-weight:400;font-size:20px;font-style:normal;fill:#000000;stroke:none;">Semester</text></g><path d="M 875.114 264.347 L 1119.018 264.347 C 1136.843 264.347 1151.316 278.819 1151.316 296.645 L 1151.316 310.049 C 1151.316 327.875 1136.843 342.347 1119.018 342.347 L 875.114 342.347 C 857.288 342.347 842.816 327.875 842.816 310.049 L 842.816 296.645 C 842.816 278.819 857.288 264.347 875.114 264.347 Z" style="stroke:none;fill:#EBEBEB;stroke-miterlimit:10;"/><g transform="matrix(1,0,0,1,910.066,280.196)"><text transform="matrix(1,0,0,1,6.835,21.377)" style="font-family:&quot;Open Sans&quot;;font-weight:400;font-size:20px;font-style:normal;fill:#000000;stroke:none;">Applied Analytics</text><text transform="matrix(1,0,0,1,0.353,42.2)" style="font-family:&quot;Open Sans&quot;;font-weight:400;font-size:14px;font-style:normal;fill:#000000;stroke:none;">(Data Management &amp; BI II)</text></g><path d="M 370.599 264.347 L 614.502 264.347 C 632.328 264.347 646.801 278.819 646.801 296.645 L 646.801 310.049 C 646.801 327.875 632.328 342.347 614.502 342.347 L 370.599 342.347 C 352.773 342.347 338.301 327.875 338.301 310.049 L 338.301 296.645 C 338.301 278.819 352.773 264.347 370.599 264.347 Z" style="stroke:none;fill:#EBEBEB;stroke-miterlimit:10;"/><g transform="matrix(1,0,0,1,375.051,280.196)"><text transform="matrix(1,0,0,1,37.613,21.377)" style="font-family:&quot;Open Sans&quot;;font-weight:400;font-size:20px;font-style:normal;fill:#000000;stroke:none;">Web Engineering</text><text transform="matrix(1,0,0,1,0.258,42.2)" style="font-family:&quot;Open Sans&quot;;font-weight:400;font-size:14px;font-style:normal;fill:#000000;stroke:none;">(Webanwendungen &amp; E-Commerce)</text></g><path d="M 732.419 263.191 L 790.581 263.191 C 812.889 263.191 831 281.302 831 303.61 L 831 500.772 C 831 523.08 812.889 541.191 790.581 541.191 L 732.419 541.191 C 710.111 541.191 692 523.08 692 500.772 L 692 303.61 C 692 281.302 710.111 263.191 732.419 263.191 Z" style="stroke:none;fill:#EBEBEB;stroke-miterlimit:10;"/><g transform="matrix(1,0,0,1,705.5,389.151)"><text transform="matrix(1,0,0,1,0,21.377)" style="font-family:&quot;Open Sans&quot;;font-weight:400;font-size:20px;font-style:normal;fill:#000000;stroke:none;">4. Semester</text></g><line x1="668" y1="263.769" x2="668" y2="541.191" vector-effect="non-scaling-stroke" stroke-width="1" stroke="rgb(0,0,0)" stroke-linejoin="miter" stroke-linecap="square" stroke-miterlimit="3"/><line x1="668" y1="452.191" x2="186.801" y2="452.191" vector-effect="non-scaling-stroke" stroke-width="1" stroke="rgb(0,0,0)" stroke-linejoin="miter" stroke-linecap="square" stroke-miterlimit="3"/></svg>