<?xml version="1.0" standalone="no"?><!-- Generator: Gravit.io --><svg xmlns="http://www.w3.org/2000/svg" xmlns:xlink="http://www.w3.org/1999/xlink" style="isolation:isolate" viewBox="489.014 370 520.986 264" width="520.986" height="264"><path d="M 494.292 428.441 L 645.708 428.441 C 648.077 428.441 650 430.364 650 432.732 L 650 517.708 C 650 520.077 648.077 522 645.708 522 L 494.292 522 C 491.923 522 490 520.077 490 517.708 L 490 432.732 C 490 430.364 491.923 428.441 494.292 428.441 Z" style="stroke:none;fill:#474747;stroke-miterlimit:10;"/><path d="M 674.292 428.441 L 825.708 428.441 C 828.077 428.441 830 430.364 830 432.732 L 830 517.708 C 830 520.077 828.077 522 825.708 522 L 674.292 522 C 671.923 522 670 520.077 670 517.708 L 670 432.732 C 670 430.364 671.923 428.441 674.292 428.441 Z" style="stroke:none;fill:#949494;stroke-miterlimit:10;"/><path d="M 854.292 428.441 L 1005.708 428.441 C 1008.077 428.441 1010 430.364 1010 432.732 L 1010 517.708 C 1010 520.077 1008.077 522 1005.708 522 L 854.292 522 C 851.923 522 850 520.077 850 517.708 L 850 432.732 C 850 430.364 851.923 428.441 854.292 428.441 Z" style="stroke:none;fill:#CACACA;stroke-miterlimit:10;"/><path d="M 853.453 531.129 L 1006.547 531.129 C 1008.453 531.129 1010 532.676 1010 534.581 L 1010 588.235 C 1010 590.141 1008.453 591.688 1006.547 591.688 L 853.453 591.688 C 851.547 591.688 850 590.141 850 588.235 L 850 534.581 C 850 532.676 851.547 531.129 853.453 531.129 Z" style="stroke:none;fill:#CACACA;stroke-miterlimit:10;"/><path d="M 852.556 600.816 L 1007.444 600.816 C 1008.855 600.816 1010 601.962 1010 603.372 L 1010 631.444 C 1010 632.855 1008.855 634 1007.444 634 L 852.556 634 C 851.145 634 850 632.855 850 631.444 L 850 603.372 C 850 601.962 851.145 600.816 852.556 600.816 Z" style="stroke:none;fill:#CACACA;stroke-miterlimit:10;"/><path d="M 672.063 600.816 L 826.951 600.816 C 828.362 600.816 829.507 601.962 829.507 603.372 L 829.507 631.444 C 829.507 632.855 828.362 634 826.951 634 L 672.063 634 C 670.652 634 669.507 632.855 669.507 631.444 L 669.507 603.372 C 669.507 601.962 670.652 600.816 672.063 600.816 Z" style="stroke:none;fill:#949494;stroke-miterlimit:10;"/><path d="M 491.57 600.816 L 646.458 600.816 C 647.869 600.816 649.014 601.962 649.014 603.372 L 649.014 631.444 C 649.014 632.855 647.869 634 646.458 634 L 491.57 634 C 490.159 634 489.014 632.855 489.014 631.444 L 489.014 603.372 C 489.014 601.962 490.159 600.816 491.57 600.816 Z" style="stroke:none;fill:#404040;stroke-miterlimit:10;"/><path d="M 672.96 531.129 L 826.054 531.129 C 827.96 531.129 829.507 532.676 829.507 534.581 L 829.507 588.235 C 829.507 590.141 827.96 591.688 826.054 591.688 L 672.96 591.688 C 671.054 591.688 669.507 590.141 669.507 588.235 L 669.507 534.581 C 669.507 532.676 671.054 531.129 672.96 531.129 Z" style="stroke:none;fill:#949494;stroke-miterlimit:10;"/><path d="M 493.091 531.129 L 646.186 531.129 C 648.092 531.129 649.639 532.676 649.639 534.581 L 649.639 588.235 C 649.639 590.141 648.092 591.688 646.186 591.688 L 493.091 591.688 C 491.186 591.688 489.639 590.141 489.639 588.235 L 489.639 534.581 C 489.639 532.676 491.186 531.129 493.091 531.129 Z" style="stroke:none;fill:#474747;stroke-miterlimit:10;"/><g transform="matrix(1,0,0,1,517.5,370)"><text transform="matrix(1,0,0,1,0,21.377)" style="font-family:&quot;Open Sans&quot;;font-weight:400;font-size:20px;font-style:normal;fill:#404040;stroke:none;">Knowledge</text></g><g transform="matrix(1,0,0,1,500,444.72)"><text transform="matrix(1,0,0,1,3.03,14.964)" style="font-family:&quot;Open Sans&quot;;font-weight:400;font-size:14px;font-style:normal;fill:#ffffff;stroke:none;">How web apps work </text><text transform="matrix(1,0,0,1,12.197,34.029)" style="font-family:&quot;Open Sans&quot;;font-weight:400;font-size:14px;font-style:normal;fill:#ffffff;stroke:none;">and how they are </text><text transform="matrix(1,0,0,1,41.906,53.095)" style="font-family:&quot;Open Sans&quot;;font-weight:400;font-size:14px;font-style:normal;fill:#ffffff;stroke:none;">are built</text></g><g transform="matrix(1,0,0,1,500,541.362)"><text transform="matrix(1,0,0,1,2.609,14.964)" style="font-family:&quot;Open Sans&quot;;font-weight:400;font-size:14px;font-style:normal;fill:#ffffff;stroke:none;">Cloud services, tools </text><text transform="matrix(1,0,0,1,20.649,34.029)" style="font-family:&quot;Open Sans&quot;;font-weight:400;font-size:14px;font-style:normal;fill:#ffffff;stroke:none;">&amp; technologies</text></g><g transform="matrix(1,0,0,1,680,541.362)"><text transform="matrix(1,0,0,1,16.715,14.964)" style="font-family:&quot;Open Sans&quot;;font-weight:400;font-size:14px;font-style:normal;fill:#ffffff;stroke:none;">Identify and use </text><text transform="matrix(1,0,0,1,8.799,34.029)" style="font-family:&quot;Open Sans&quot;;font-weight:400;font-size:14px;font-style:normal;fill:#ffffff;stroke:none;">relevant platforms</text></g><g transform="matrix(1,0,0,1,680,606.408)"><text transform="matrix(1,0,0,1,52.139,14.964)" style="font-family:&quot;Open Sans&quot;;font-weight:400;font-size:14px;font-style:normal;fill:#ffffff;stroke:none;">Code</text></g><g transform="matrix(1,0,0,1,499.014,608.612)"><text transform="matrix(1,0,0,1,5.468,11.757)" style="font-family:&quot;Open Sans&quot;;font-weight:400;font-size:11px;font-style:normal;fill:#ffffff;stroke:none;">Importance of Web Apps</text></g><g transform="matrix(1,0,0,1,860,541.362)"><text transform="matrix(1,0,0,1,4.011,14.964)" style="font-family:&quot;Open Sans&quot;;font-weight:400;font-size:14px;font-style:normal;fill:#ffffff;stroke:none;">Logical thinking and </text><text transform="matrix(1,0,0,1,15.693,34.029)" style="font-family:&quot;Open Sans&quot;;font-weight:400;font-size:14px;font-style:normal;fill:#ffffff;stroke:none;">structuring skills</text></g><g transform="matrix(1,0,0,1,860,606.408)"><text transform="matrix(1,0,0,1,14.001,14.964)" style="font-family:&quot;Open Sans&quot;;font-weight:400;font-size:14px;font-style:normal;fill:#ffffff;stroke:none;">Creative thinking</text></g><g transform="matrix(1,0,0,1,680,455.081)"><text transform="matrix(1,0,0,1,20.475,14.964)" style="font-family:&quot;Open Sans&quot;;font-weight:400;font-size:14px;font-style:normal;fill:#ffffff;stroke:none;">Plan and build </text><text transform="matrix(1,0,0,1,37.708,34.029)" style="font-family:&quot;Open Sans&quot;;font-weight:400;font-size:14px;font-style:normal;fill:#ffffff;stroke:none;">web apps</text></g><g transform="matrix(1,0,0,1,860,455.081)"><text transform="matrix(1,0,0,1,25.978,14.964)" style="font-family:&quot;Open Sans&quot;;font-weight:400;font-size:14px;font-style:normal;fill:#ffffff;stroke:none;">Collaborative </text><text transform="matrix(1,0,0,1,16.134,34.029)" style="font-family:&quot;Open Sans&quot;;font-weight:400;font-size:14px;font-style:normal;fill:#ffffff;stroke:none;">Problem Solving</text></g><g transform="matrix(1,0,0,1,860,455.081)"><text transform="matrix(1,0,0,1,25.978,14.964)" style="font-family:&quot;Open Sans&quot;;font-weight:400;font-size:14px;font-style:normal;fill:#ffffff;stroke:none;">Collaborative </text><text transform="matrix(1,0,0,1,16.134,34.029)" style="font-family:&quot;Open Sans&quot;;font-weight:400;font-size:14px;font-style:normal;fill:#ffffff;stroke:none;">Problem Solving</text></g><g transform="matrix(1,0,0,1,721.5,370)"><text transform="matrix(1,0,0,1,0,21.377)" style="font-family:&quot;Open Sans&quot;;font-weight:400;font-size:20px;font-style:normal;fill:#404040;stroke:none;">Doing</text></g><g transform="matrix(1,0,0,1,910.5,370)"><text transform="matrix(1,0,0,1,0,21.377)" style="font-family:&quot;Open Sans&quot;;font-weight:400;font-size:20px;font-style:normal;fill:#404040;stroke:none;">Soft</text></g><g transform="matrix(1,0,0,1,514.5,402.118)"><text transform="matrix(1,0,0,1,0,10.688)" style="font-family:&quot;Open Sans&quot;;font-weight:400;font-size:10px;font-style:normal;fill:#404040;stroke:none;">You know / understand</text></g><g transform="matrix(1,0,0,1,730.5,402.118)"><text transform="matrix(1,0,0,1,0,10.688)" style="font-family:&quot;Open Sans&quot;;font-weight:400;font-size:10px;font-style:normal;fill:#404040;stroke:none;">You can</text></g><g transform="matrix(1,0,0,1,899,402.118)"><text transform="matrix(1,0,0,1,0,10.688)" style="font-family:&quot;Open Sans&quot;;font-weight:400;font-size:10px;font-style:normal;fill:#404040;stroke:none;">You improve</text></g></svg>