<?xml version="1.0" standalone="no"?><!-- Generator: Gravit.io --><svg xmlns="http://www.w3.org/2000/svg" xmlns:xlink="http://www.w3.org/1999/xlink" style="isolation:isolate" viewBox="624.2 315 342 233.682" width="342" height="233.682"><path d=" M 854.45 548.482 C 854.55 548.582 854.55 548.582 854.65 548.682" fill="rgb(116,116,116)"/><g id="null"><path d="M 629.093 315 L 961.307 315 C 964.007 315 966.2 317.193 966.2 319.893 L 966.2 370.107 C 966.2 372.807 964.007 375 961.307 375 L 629.093 375 C 626.393 375 624.2 372.807 624.2 370.107 L 624.2 319.893 C 624.2 317.193 626.393 315 629.093 315 Z" style="stroke:none;fill:#EBEBEB;stroke-miterlimit:10;"/><g transform="matrix(1,0,0,1,753.2,331.382)"><text transform="matrix(1,0,0,1,0,21.377)" style="font-family:&quot;Open Sans&quot;;font-weight:400;font-size:20px;font-style:normal;fill:#000000;stroke:none;">Website</text></g></g><g id="null"><path d="M 742.682 465 L 961.218 465 C 963.416 465 965.2 466.784 965.2 468.982 L 965.2 521.018 C 965.2 523.216 963.416 525 961.218 525 L 742.682 525 C 740.484 525 738.7 523.216 738.7 521.018 L 738.7 468.982 C 738.7 466.784 740.484 465 742.682 465 Z" style="stroke:none;fill:#EBEBEB;stroke-miterlimit:10;"/><g transform="matrix(1,0,0,1,808.45,481.382)"><text transform="matrix(1,0,0,1,0,21.377)" style="font-family:&quot;Open Sans&quot;;font-weight:400;font-size:20px;font-style:normal;fill:#000000;stroke:none;">Web App</text></g></g><g id="null"><path d="M 742.385 390.4 L 840.015 390.4 C 841.497 390.4 842.7 391.603 842.7 393.085 L 842.7 447.715 C 842.7 449.197 841.497 450.4 840.015 450.4 L 742.385 450.4 C 740.903 450.4 739.7 449.197 739.7 447.715 L 739.7 393.085 C 739.7 391.603 740.903 390.4 742.385 390.4 Z" style="stroke:none;fill:#B9B9B9;stroke-miterlimit:10;"/><g transform="matrix(1,0,0,1,749.2,406.782)"><text transform="matrix(1,0,0,1,0,21.377)" style="font-family:&quot;Open Sans&quot;;font-weight:400;font-size:20px;font-style:normal;fill:#000000;stroke:none;">Dynamic</text></g></g><g id="null"><path d="M 857.975 390.4 L 962.425 390.4 C 963.956 390.4 965.2 391.644 965.2 393.175 L 965.2 447.625 C 965.2 449.156 963.956 450.4 962.425 450.4 L 857.975 450.4 C 856.444 450.4 855.2 449.156 855.2 447.625 L 855.2 393.175 C 855.2 391.644 856.444 390.4 857.975 390.4 Z" style="stroke:none;fill:#B9B9B9;stroke-miterlimit:10;"/><g transform="matrix(1,0,0,1,860.25,406.782)"><text transform="matrix(1,0,0,1,0,21.377)" style="font-family:&quot;Open Sans&quot;;font-weight:400;font-size:20px;font-style:normal;fill:#000000;stroke:none;">Interactive</text></g></g><g id="null"><path d="M 626.885 390.4 L 724.515 390.4 C 725.997 390.4 727.2 391.603 727.2 393.085 L 727.2 447.715 C 727.2 449.197 725.997 450.4 724.515 450.4 L 626.885 450.4 C 625.403 450.4 624.2 449.197 624.2 447.715 L 624.2 393.085 C 624.2 391.603 625.403 390.4 626.885 390.4 Z" style="stroke:none;fill:#B9B9B9;stroke-miterlimit:10;"/><g transform="matrix(1,0,0,1,649.7,406.782)"><text transform="matrix(1,0,0,1,0,21.377)" style="font-family:&quot;Open Sans&quot;;font-weight:400;font-size:20px;font-style:normal;fill:#000000;stroke:none;">Static</text></g></g></svg>