<?xml version="1.0" standalone="no"?><!-- Generator: Gravit.io --><svg xmlns="http://www.w3.org/2000/svg" xmlns:xlink="http://www.w3.org/1999/xlink" style="isolation:isolate" viewBox="422 427 408.667 129" width="408.667" height="129"><path d=" M 422 491.5 C 422 455.901 450.901 427 486.5 427 C 522.099 427 551 455.901 551 491.5 C 551 527.099 522.099 556 486.5 556 C 450.901 556 422 527.099 422 491.5 Z " fill="rgb(4,168,176)" fill-opacity="0.9"/><path d=" M 515.222 491.5 C 515.222 455.901 544.124 427 579.722 427 C 615.321 427 644.222 455.901 644.222 491.5 C 644.222 527.099 615.321 556 579.722 556 C 544.124 556 515.222 527.099 515.222 491.5 Z " fill="rgb(222,3,107)" fill-opacity="0.9"/><path d=" M 608.444 491.5 C 608.444 455.901 637.346 427 672.944 427 C 708.543 427 737.444 455.901 737.444 491.5 C 737.444 527.099 708.543 556 672.944 556 C 637.346 556 608.444 527.099 608.444 491.5 Z " fill="rgb(146,239,3)" fill-opacity="0.9"/><path d=" M 701.667 491.5 C 701.667 455.901 730.568 427 766.167 427 C 801.765 427 830.667 455.901 830.667 491.5 C 830.667 527.099 801.765 556 766.167 556 C 730.568 556 701.667 527.099 701.667 491.5 Z " fill="rgb(255,224,4)" fill-opacity="0.9"/></svg>