<?xml version="1.0" standalone="no"?><!-- Generator: Gravit.io --><svg xmlns="http://www.w3.org/2000/svg" xmlns:xlink="http://www.w3.org/1999/xlink" style="isolation:isolate" viewBox="-804 -508 804 306" width="804" height="306"><g transform="matrix(1,0,0,1,-804,-508)"><text transform="matrix(1,0,0,1,69.908,38.479)" style="font-family:&quot;Open Sans&quot;;font-weight:400;font-size:36px;font-style:normal;fill:#404040;stroke:none;">Session 1</text></g><g transform="matrix(1,0,0,1,-708.25,-255)"><text transform="matrix(1,0,0,1,21.234,38.479)" style="font-family:&quot;Open Sans&quot;;font-weight:400;font-size:36px;font-style:normal;fill:#404040;stroke:none;">2 h</text></g><g transform="matrix(1,0,0,1,-736.75,-293.487)"><text transform="matrix(1,0,0,1,16.62,19.239)" style="font-family:&quot;Open Sans&quot;;font-weight:400;font-size:18px;font-style:normal;fill:#404040;stroke:none;">New Concepts</text></g><g transform="matrix(1,0,0,1,-476.25,-294)"><text transform="matrix(1,0,0,1,43.58,19.239)" style="font-family:&quot;Open Sans&quot;;font-weight:400;font-size:18px;font-style:normal;fill:#404040;stroke:none;">Practice</text></g><g transform="matrix(1,0,0,1,-240.375,-293.487)"><text transform="matrix(1,0,0,1,30.016,19.239)" style="font-family:&quot;Open Sans&quot;;font-weight:400;font-size:18px;font-style:normal;fill:#404040;stroke:none;">Research &amp; Practice</text></g><g transform="matrix(1,0,0,1,-455,-255)"><text transform="matrix(1,0,0,1,27.484,38.479)" style="font-family:&quot;Open Sans&quot;;font-weight:400;font-size:36px;font-style:normal;fill:#404040;stroke:none;">2 h</text></g><g transform="matrix(1,0,0,1,-181,-255)"><text transform="matrix(1,0,0,1,1.049,38.479)" style="font-family:&quot;Open Sans&quot;;font-weight:400;font-size:36px;font-style:normal;fill:#404040;stroke:none;">4 - 8 h</text></g><g transform="matrix(1,0,0,1,-548,-508)"><text transform="matrix(1,0,0,1,69.908,38.479)" style="font-family:&quot;Open Sans&quot;;font-weight:400;font-size:36px;font-style:normal;fill:#404040;stroke:none;">Session 2</text></g><g transform="matrix(1,0,0,1,-253,-508)"><text transform="matrix(1,0,0,1,74.506,38.479)" style="font-family:&quot;Open Sans&quot;;font-weight:400;font-size:36px;font-style:normal;fill:#404040;stroke:none;">Home</text></g><path d=" M -689 -377 C -689 -393.557 -675.557 -407 -659 -407 C -642.443 -407 -629 -393.557 -629 -377 C -629 -360.443 -642.443 -347 -659 -347 C -675.557 -347 -689 -360.443 -689 -377 Z " fill="rgb(214,244,157)"/><path d=" M -435 -381 C -435 -397.557 -421.557 -411 -405 -411 L -405 -381 L -435 -381 Z " fill="rgb(214,244,157)"/><path d=" M -399.5 -407 C -382.943 -407 -369.5 -393.557 -369.5 -377 C -369.5 -360.443 -382.943 -347 -399.5 -347 C -416.057 -347 -429.5 -360.443 -429.5 -377 L -399.5 -377 L -399.5 -407 Z " fill="rgb(0,158,227)"/><path d=" M -123 -427 C -89.885 -427 -63 -400.115 -63 -367 C -63 -333.885 -89.885 -307 -123 -307 L -123 -367 L -123 -427 Z " fill="rgb(214,244,157)"/><path d=" M -126.5 -307 C -159.615 -307 -186.5 -333.885 -186.5 -367 C -186.5 -400.115 -159.615 -427 -126.5 -427 L -126.5 -367 L -126.5 -307 Z " fill="rgb(0,158,227)"/></svg>