<?xml version="1.0" standalone="no"?><!-- Generator: Gravit.io --><svg xmlns="http://www.w3.org/2000/svg" xmlns:xlink="http://www.w3.org/1999/xlink" style="isolation:isolate" viewBox="-346.995 -208.995 252.99 253.885" width="252.99" height="253.885"><g id="web_logo"><g id="group75-1"><g id="shape48-2"><path d=" M -343 -82.053 C -343 -149.909 -288.11 -205 -220.5 -205 C -152.89 -205 -98 -149.909 -98 -82.053 C -98 -14.197 -152.89 40.894 -220.5 40.894 C -288.11 40.894 -343 -14.197 -343 -82.053 Z " fill="rgb(117,117,117)" vector-effect="non-scaling-stroke" stroke-width="7.99" stroke="rgb(255,255,255)" stroke-linejoin="round" stroke-linecap="round" stroke-miterlimit="4"/></g><g id="group51-4"><g id="shape52-5"><path d=" M -172.875 -143.207 L -256.15 -143.207 L -267.842 -143.207 C -272.637 -143.207 -276.858 -139.251 -276.858 -134.603 C -276.858 -134.603 -276.858 -134.603 -276.858 -134.47 C -276.858 -134.191 -276.432 -133.764 -276.432 -133.485 L -266.857 -47.534 C -266.71 -46.269 -266.298 -45.137 -265.592 -44.151 C -264.74 -42.46 -263.328 -41.195 -261.637 -40.342 L -223.735 -21.751 C -222.47 -21.192 -221.205 -20.899 -219.939 -20.899 C -218.674 -20.899 -217.396 -21.192 -216.131 -21.751 L -178.376 -40.342 C -175.273 -41.9 -173.435 -45.137 -173.581 -48.519 L -164.286 -133.764 C -164.286 -134.044 -164.139 -134.47 -164.139 -134.75 C -164.139 -134.75 -164.139 -134.75 -164.139 -134.883 C -164.139 -139.251 -168.081 -143.207 -172.875 -143.207 Z  M -243.325 -84.596 L -228.955 -70.213 C -226.132 -67.403 -226.132 -62.756 -228.955 -59.932 C -231.779 -57.122 -236.427 -57.122 -239.237 -59.932 L -260.238 -80.921 C -260.238 -80.921 -260.518 -80.921 -260.518 -81.067 C -261.637 -82.199 -262.769 -83.464 -262.769 -84.876 C -262.769 -85.289 -262.622 -85.715 -262.622 -86.274 C -262.622 -88.112 -261.783 -90.083 -260.371 -91.495 C -260.371 -91.495 -260.238 -91.495 -260.238 -91.628 L -253.473 -98.393 L -239.103 -112.763 C -236.28 -115.586 -231.632 -115.586 -228.809 -112.763 C -225.999 -109.953 -225.999 -105.305 -228.809 -102.482 L -244.87 -86.141 L -243.325 -84.596 Z  M -178.229 -81.067 C -178.376 -81.067 -178.376 -80.921 -178.229 -81.067 L -184.994 -74.302 L -199.364 -59.932 C -202.187 -57.122 -206.835 -57.122 -209.645 -59.932 C -212.468 -62.756 -212.468 -67.403 -209.645 -70.213 L -193.731 -86.141 L -195.422 -87.832 L -209.792 -102.202 C -212.615 -105.025 -212.615 -109.673 -209.792 -112.483 C -206.968 -115.306 -202.32 -115.306 -199.51 -112.483 L -178.509 -91.495 C -178.509 -91.495 -178.376 -91.495 -178.376 -91.348 C -177.244 -90.23 -176.684 -88.951 -176.405 -87.553 C -176.405 -87.273 -176.405 -86.98 -176.258 -86.847 C -176.258 -86.7 -176.258 -86.421 -176.258 -86.274 C -176.125 -84.303 -176.817 -82.479 -178.229 -81.067 Z " fill="rgb(255,255,255)"/></g></g></g></g></svg>