<svg version="1.1" viewBox="0 0 702 292" fill="none" stroke="none" stroke-linecap="square" stroke-miterlimit="10" xmlns:xlink="http://www.w3.org/1999/xlink" xmlns="http://www.w3.org/2000/svg"><clipPath id="p.0"><path d="m0 0l702.49603 0l0 292.3491l-702.49603 0l0 -292.3491z" clip-rule="nonzero"/></clipPath><g clip-path="url(#p.0)"><path fill="#404040" d="m0 0l702.49603 0l0 292.3491l-702.49603 0z" fill-rule="evenodd"/><path fill="#cccccc" d="m364.13898 13.010283l9.070068 18.140331l8.023499 19.207407l2.5240173 10.56818l0 9.706306l-2.5240173 10.547661l-8.023499 19.207405l-9.070068 18.16085l5.068573 -0.20520782l10.978455 -2.339363l11.388855 -4.206749l11.388855 -6.135704l11.204193 -7.3874664l10.342316 -8.434021l8.864838 -9.295891l7.1616516 -9.911514l2.7497253 -4.863411l-2.7497253 -4.8428955l-7.1616516 -9.932037l-8.864838 -9.275372l-10.342316 -8.454544l-11.204193 -7.3874645l-11.388855 -6.115179l-11.388855 -4.227271l-10.978455 -2.318843l-5.068573 -0.20520687z" fill-rule="evenodd"/><path stroke="#efefef" stroke-width="4.0" stroke-miterlimit="102.8618" stroke-linecap="butt" d="m364.13898 13.010283l9.070068 18.140331l8.023499 19.207407l2.5240173 10.56818l0 9.706306l-2.5240173 10.547661l-8.023499 19.207405l-9.070068 18.16085l5.068573 -0.20520782l10.978455 -2.339363l11.388855 -4.206749l11.388855 -6.135704l11.204193 -7.3874664l10.342316 -8.434021l8.864838 -9.295891l7.1616516 -9.911514l2.7497253 -4.863411l-2.7497253 -4.8428955l-7.1616516 -9.932037l-8.864838 -9.275372l-10.342316 -8.454544l-11.204193 -7.3874645l-11.388855 -6.115179l-11.388855 -4.227271l-10.978455 -2.318843l-5.068573 -0.20520687z" fill-rule="evenodd"/><path fill="#000000" fill-opacity="0.0" d="m338.1806 13.646426l3.3653564 2.5240507l5.9098816 5.7047634l7.613098 9.070166l6.7512207 13.93358l3.365387 14.774929l0 14.980133l-3.365387 14.774933l-6.7512207 13.728371l-7.613098 9.295891l-5.9098816 5.4790344l-3.3653564 2.5240555" fill-rule="evenodd"/><path stroke="#efefef" stroke-width="4.0" stroke-miterlimit="102.8618" stroke-linecap="butt" d="m338.1806 13.646426l3.3653564 2.5240507l5.9098816 5.7047634l7.613098 9.070166l6.7512207 13.93358l3.365387 14.774929l0 14.980133l-3.365387 14.774933l-6.7512207 13.728371l-7.613098 9.295891l-5.9098816 5.4790344l-3.3653564 2.5240555" fill-rule="evenodd"/><path fill="#cccccc" d="m339.02194 172.57951l0 105.53813l26.389313 0l5.4789734 -0.2052002l10.342316 -2.113617l9.500977 -4.0015564l8.433929 -5.704773l6.976959 -6.977051l5.684143 -8.434006l4.0220337 -9.501114l2.113617 -10.342438l0.2052002 -5.4790497l-0.2052002 -5.273819l-2.113617 -10.342453l-4.0220337 -9.501099l-5.684143 -8.454544l-6.976959 -7.182251l-8.433929 -5.68425l-9.500977 -4.022064l-10.342316 -2.1136322l-5.4789734 -0.20521545z" fill-rule="evenodd"/><path stroke="#efefef" stroke-width="4.0" stroke-miterlimit="102.8618" stroke-linecap="butt" d="m339.02194 172.57951l0 105.53813l26.389313 0l5.4789734 -0.2052002l10.342316 -2.113617l9.500977 -4.0015564l8.433929 -5.704773l6.976959 -6.977051l5.684143 -8.434006l4.0220337 -9.501114l2.113617 -10.342438l0.2052002 -5.4790497l-0.2052002 -5.273819l-2.113617 -10.342453l-4.0220337 -9.501099l-5.684143 -8.454544l-6.976959 -7.182251l-8.433929 -5.68425l-9.500977 -4.022064l-10.342316 -2.1136322l-5.4789734 -0.20521545z" fill-rule="evenodd"/><path fill="#fbed32" d="m497.31686 40.651714l0 52.77933l52.778656 0l0 -52.77933z" fill-rule="evenodd"/><path stroke="#fbed32" stroke-width="4.0" stroke-miterlimit="102.8618" stroke-linecap="butt" d="m497.31686 40.651714l0 52.77933l52.778656 0l0 -52.77933z" fill-rule="evenodd"/><path fill="#434343" d="m524.1371 50.583748l-1.2722168 1.0465584l-1.9084473 1.0670776l-2.3187866 0.84135056l-2.729248 0.20520782l-1.477478 0l0 2.113636l6.5255127 0l0 18.160847l-0.2052002 1.0465622l-0.2052002 0.6361389l-0.6361084 0.63614655l-0.63616943 0.20520782l-0.8413086 0.20520782l-1.477478 0.22572327l-1.477478 0.20520782l-0.8413696 0l0 1.8879089l17.298767 0l0 -1.8879089l-0.8413086 0l-1.477478 -0.20520782l-1.2722778 -0.4309311l-0.8413696 -0.20520782l-0.6361084 -0.43093872l-0.6156006 -0.6361389l-0.22570801 -0.63614655l0 -0.84134674l0 -15.411072l0 -1.8879089l0 -2.113636l0 -2.113636l0.22570801 -1.6827011z" fill-rule="evenodd"/><path fill="#000000" fill-opacity="0.0" d="m497.31686 198.96918l0 52.75882l52.778656 0l0 -52.75882z" fill-rule="evenodd"/><path stroke="#efefef" stroke-width="4.0" stroke-miterlimit="102.8618" stroke-linecap="butt" d="m497.31686 198.96918l0 52.75882l52.778656 0l0 -52.75882z" fill-rule="evenodd"/><path fill="#efefef" d="m522.4339 210.58392l1.703186 0.2052002l2.954956 1.6827087l1.0465698 1.4774933l1.0670776 1.7032166l1.0465088 4.8428955l0 2.9549866l0 2.749771l-1.0465088 4.8428955l-0.86187744 1.7032166l-1.25177 1.6827087l-2.7496948 1.6826935l-1.9084473 0.22573853l-1.8878784 -0.22573853l-2.7497559 -1.6826935l-1.2722778 -1.6827087l-0.8413086 -1.7032166l-1.0465698 -4.8428955l0 -2.749771l0 -2.9549866l1.0465698 -4.8428955l1.0670776 -1.7032166l1.0465088 -1.4774933l2.954956 -1.6827087l1.6826782 -0.2052002zm0 -1.7032318l-3.1601562 0.22573853l-2.7497559 0.8413391l-2.5239868 1.2722931l-1.6826782 1.8879089l-1.703186 2.1136322l-0.8413696 2.5240479l-0.6361084 2.7497864l-0.20523071 2.9549866l0.20523071 2.9549866l0.6361084 2.9549866l1.0670776 2.544571l1.477478 2.0931091l1.6826782 1.7032166l2.5239868 1.25177l2.7497559 1.0670776l6.1151123 0l2.5445557 -0.84135437l2.3187866 -1.0670776l1.9084473 -1.8879089l1.6826782 -1.9084167l1.0465088 -2.524063l0.8413696 -2.9549866l0.22570801 -3.38591l0 -2.9549866l-0.8413696 -2.5240479l-0.8618164 -2.7497864l-1.477478 -2.1136322l-1.8878784 -1.6827087l-2.3188477 -1.4774933l-2.7497559 -0.8413391l-3.3858643 -0.22573853z" fill-rule="evenodd"/><path fill="#000000" fill-opacity="0.0" d="m127.94835 14.282569l0 52.758812l52.758133 0l0 -52.758812z" fill-rule="evenodd"/><path stroke="#efefef" stroke-width="4.0" stroke-miterlimit="102.8618" stroke-linecap="butt" d="m127.94835 14.282569l0 52.758812l52.758133 0l0 -52.758812z" fill-rule="evenodd"/><path fill="#efefef" d="m153.06541 25.876783l1.6826782 0.22572899l2.9549408 1.6826992l1.0465393 1.4774933l1.0670776 1.6827011l1.0465393 4.863413l0 2.9549866l0 2.7292595l-1.0465393 4.863411l-0.8413391 1.6827011l-1.2722778 1.7032204l-2.7497406 1.6827011l-1.8878784 0.20520782l-1.9084167 -0.20520782l-2.7497406 -1.6827011l-1.2517395 -1.7032204l-0.8618622 -1.6827011l-1.0465393 -4.863411l0 -2.7292595l0 -2.9549866l1.0465393 -4.863413l1.0670624 -1.6827011l1.0465393 -1.4774933l2.954956 -1.6826992l1.7032013 -0.22572899zm0 -1.6826992l-3.1806793 0.20520782l-2.7292175 0.84134865l-2.5445404 1.2722855l-1.6826782 1.9084282l-1.6826782 2.113636l-0.8618622 2.5240498l-0.61561584 2.7497787l-0.22572327 2.9549866l0.22572327 2.9549866l0.61561584 2.9549866l1.0670624 2.5240479l1.477478 2.113636l1.6826782 1.6827011l2.5445404 1.2722855l2.7292175 1.0465584l6.13562 0l2.5240173 -0.84135056l2.3188171 -1.0465584l1.9084015 -1.9084282l1.6826782 -1.8879089l1.0670624 -2.544571l0.8413391 -2.9549828l0.20521545 -3.3654022l0 -2.9549866l-0.8413391 -2.544571l-0.8413391 -2.7292576l-1.477478 -2.113636l-1.9084015 -1.7032204l-2.3188171 -1.4774933l-2.7497406 -0.84134865l-3.3653564 -0.20520782z" fill-rule="evenodd"/><path fill="#fbed32" d="m127.94835 119.82071l0 52.758804l52.758133 0l0 -52.758804z" fill-rule="evenodd"/><path stroke="#fbed32" stroke-width="4.0" stroke-miterlimit="102.8618" stroke-linecap="butt" d="m127.94835 119.82071l0 52.758804l52.758133 0l0 -52.758804z" fill-rule="evenodd"/><path fill="#434343" d="m154.7481 129.73222l-1.2722778 1.0670776l-1.8878784 1.0465546l-2.3393402 0.84135437l-2.7292175 0.2052002l-1.477478 0l0 2.1136475l6.546036 0l0 18.160843l-0.22572327 1.0465546l-0.20521545 0.6361542l-0.63612366 0.6361389l-0.6361389 0.2052002l-0.8413391 0.22573853l-1.477478 0.2052002l-1.4774628 0.20521545l-0.8413391 0l0 1.9084167l17.319275 0l0 -1.9084167l-0.8618622 0l-1.477478 -0.20521545l-1.2517395 -0.43093872l-0.8413391 -0.2052002l-0.6361389 -0.43093872l-0.6361389 -0.61561584l-0.22572327 -0.6361542l0 -0.8413391l0 -15.411072l0 -1.908432l0 -2.1136322l0 -2.1136475l0.22572327 -1.6826935z" fill-rule="evenodd"/><path fill="#000000" fill-opacity="0.0" d="m179.43422 40.651714l105.53679 0" fill-rule="evenodd"/><path stroke="#efefef" stroke-width="4.0" stroke-miterlimit="102.8618" stroke-linecap="round" d="m179.43422 40.651714l105.53679 0" fill-rule="evenodd"/><path fill="#000000" fill-opacity="0.0" d="m337.74966 198.96918l-52.778656 0" fill-rule="evenodd"/><path stroke="#efefef" stroke-width="4.0" stroke-miterlimit="102.8618" stroke-linecap="round" d="m337.74966 198.96918l-52.778656 0" fill-rule="evenodd"/><path fill="#000000" fill-opacity="0.0" d="m337.74966 251.728l-105.53679 0" fill-rule="evenodd"/><path stroke="#fbed32" stroke-width="4.0" stroke-miterlimit="102.8618" stroke-linecap="round" d="m337.74966 251.728l-105.53679 0" fill-rule="evenodd"/><path fill="#000000" fill-opacity="0.0" d="m416.89713 225.35884l79.16797 0" fill-rule="evenodd"/><path stroke="#efefef" stroke-width="4.0" stroke-miterlimit="102.8618" stroke-linecap="round" d="m416.89713 225.35884l79.16797 0" fill-rule="evenodd"/><path fill="#000000" fill-opacity="0.0" d="m179.43422 146.18985l52.778656 0" fill-rule="evenodd"/><path stroke="#fbed32" stroke-width="4.0" stroke-miterlimit="102.8618" stroke-linecap="round" d="m179.43422 146.18985l52.778656 0" fill-rule="evenodd"/><path fill="#000000" fill-opacity="0.0" d="m337.74966 40.651714l-52.778656 0" fill-rule="evenodd"/><path stroke="#efefef" stroke-width="4.0" stroke-miterlimit="102.8618" stroke-linecap="round" d="m337.74966 40.651714l-52.778656 0" fill-rule="evenodd"/><path fill="#000000" fill-opacity="0.0" d="m337.74966 93.431046l-105.53679 0" fill-rule="evenodd"/><path stroke="#fbed32" stroke-width="4.0" stroke-miterlimit="102.8618" stroke-linecap="round" d="m337.74966 93.431046l-105.53679 0" fill-rule="evenodd"/><path fill="#000000" fill-opacity="0.0" d="m443.28644 67.04138l52.778656 0" fill-rule="evenodd"/><path stroke="#fbed32" stroke-width="4.0" stroke-miterlimit="102.8618" stroke-linecap="round" d="m443.28644 67.04138l52.778656 0" fill-rule="evenodd"/><path fill="#000000" fill-opacity="0.0" d="m286.2433 39.39995l0 158.29695" fill-rule="evenodd"/><path stroke="#efefef" stroke-width="4.0" stroke-miterlimit="102.8618" stroke-linecap="round" d="m286.2433 39.39995l0 158.29695" fill-rule="evenodd"/><path fill="#000000" fill-opacity="0.0" d="m233.48514 250.47623l0 -105.53813" fill-rule="evenodd"/><path stroke="#fbed32" stroke-width="4.0" stroke-miterlimit="102.8618" stroke-linecap="round" d="m233.48514 250.47623l0 -105.53813" fill-rule="evenodd"/><path fill="#000000" fill-opacity="0.0" d="m233.48514 144.9381l0 -52.779335" fill-rule="evenodd"/><path stroke="#fbed32" stroke-width="4.0" stroke-miterlimit="102.8618" stroke-linecap="round" d="m233.48514 144.9381l0 -52.779335" fill-rule="evenodd"/><path fill="#efefef" d="m177.95674 31.581549l-2.7292175 1.0465565l-2.3188171 1.9084282l-1.2722626 2.9549866l0 1.9084282l0 1.8879089l1.2722626 2.9549866l2.3188171 1.9084282l2.7292175 1.0465546l2.954956 0l2.7497406 -1.0465546l2.3188019 -1.9084282l1.2722778 -2.9549866l0.2052002 -1.8879089l-0.2052002 0l0 -1.9084282l-1.2722778 -2.9549866l-2.3188019 -1.9084282l-2.7497406 -1.0465565z" fill-rule="evenodd"/><path fill="#efefef" d="m336.2722 189.89902l-2.7497559 1.0465546l-2.3187866 1.908432l-1.2722778 2.9549866l0 1.8879089l0 1.908432l1.2722778 2.9549866l2.3187866 1.8878937l2.7497559 1.0670929l2.954956 0l2.7497253 -1.0670929l2.3188171 -1.8878937l1.2722778 -2.9549866l0.2052002 -1.908432l-0.2052002 0l0 -1.8879089l-1.2722778 -2.9549866l-2.3188171 -1.908432l-2.7497253 -1.0465546z" fill-rule="evenodd"/><path fill="#fbed32" d="m336.2722 242.65782l-2.7497559 1.0670776l-2.3187866 1.8879089l-1.2722778 2.9549866l0 1.908432l0 1.8879089l1.2722778 2.9549866l2.3187866 1.9084167l2.7497559 1.0465698l2.954956 0l2.7497253 -1.0465698l2.3188171 -1.9084167l1.2722778 -2.9549866l0.2052002 -1.8879089l-0.2052002 0l0 -1.908432l-1.2722778 -2.9549866l-2.3188171 -1.8879089l-2.7497253 -1.0670776z" fill-rule="evenodd"/><path fill="#efefef" d="m415.41965 216.26816l-2.7292175 1.0670776l-2.339325 1.8879089l-1.25177 2.9549866l0 1.908432l0 1.908432l1.25177 2.9549866l2.339325 1.8879089l2.7292175 1.0670776l2.954956 0l2.7497253 -1.0670776l2.3188171 -1.8879089l1.2722778 -2.9549866l0.2052002 -1.908432l-0.2052002 0l0 -1.908432l-1.2722778 -2.9549866l-2.3188171 -1.8879089l-2.7497253 -1.0670776z" fill-rule="evenodd"/><path fill="#fbed32" d="m177.95674 137.11969l-2.7292175 1.0670776l-2.3188171 1.8879089l-1.2722626 2.9549866l0 1.908432l0 1.8878937l1.2722626 2.9549866l2.3188171 1.908432l2.7292175 1.0465546l2.954956 0l2.7497406 -1.0465546l2.3188019 -1.908432l1.2722778 -2.9549866l0.2052002 -1.8878937l-0.2052002 0l0 -1.908432l-1.2722778 -2.9549866l-2.3188019 -1.8879089l-2.7497406 -1.0670776z" fill-rule="evenodd"/><path fill="#efefef" d="m336.2722 31.581549l-2.7497559 1.0465565l-2.3187866 1.9084282l-1.2722778 2.9549866l0 1.9084282l0 1.8879089l1.2722778 2.9549866l2.3187866 1.9084282l2.7497559 1.0465546l2.954956 0l2.7497253 -1.0465546l2.3188171 -1.9084282l1.2722778 -2.9549866l0.2052002 -1.8879089l-0.2052002 0l0 -1.9084282l-1.2722778 -2.9549866l-2.3188171 -1.9084282l-2.7497253 -1.0465565z" fill-rule="evenodd"/><path fill="#fbed32" d="m336.2722 84.36088l-2.7497559 1.0465546l-2.3187866 1.908432l-1.2722778 2.9549866l0 1.8879089l0 1.9084244l1.2722778 2.9549866l2.3187866 1.8879089l2.7497559 1.0670776l2.954956 0l2.7497253 -1.0670776l2.3188171 -1.8879089l1.2722778 -2.9549866l0.2052002 -1.9084244l-0.2052002 0l0 -1.8879089l-1.2722778 -2.9549866l-2.3188171 -1.908432l-2.7497253 -1.0465546z" fill-rule="evenodd"/><path fill="#fbed32" d="m441.809 57.971214l-2.7497559 1.0465584l-2.3188171 1.9084282l-1.2517395 2.9549828l0 1.8879128l0 1.9084244l1.2517395 2.9549866l2.3188171 1.9084244l2.7497559 1.0465622l2.9549255 0l2.7497559 -1.0465622l2.3188171 -1.9084244l1.2722473 -2.9549866l0.20523071 -1.9084244l-0.20523071 0l0 -1.8879128l-1.2722473 -2.9549828l-2.3188171 -1.9084282l-2.7497559 -1.0465584z" fill-rule="evenodd"/><path fill="#fbed32" d="m494.58765 57.971214l-2.7497559 1.0465584l-2.3188171 1.9084282l-1.2722778 2.9549828l0 1.8879128l0 1.9084244l1.2722778 2.9549866l2.3188171 1.9084244l2.7497559 1.0465622l2.9549255 0l2.7292175 -1.0465622l2.3393555 -1.9084244l1.2517395 -2.9549866l0.22573853 -1.9084244l-0.22573853 0l0 -1.8879128l-1.2517395 -2.9549828l-2.3393555 -1.9084282l-2.7292175 -1.0465584z" fill-rule="evenodd"/><path fill="#efefef" d="m494.58765 216.26816l-2.7497559 1.0670776l-2.3188171 1.8879089l-1.2722778 2.9549866l0 1.908432l0 1.908432l1.2722778 2.9549866l2.3188171 1.8879089l2.7497559 1.0670776l2.9549255 0l2.7292175 -1.0670776l2.3393555 -1.8879089l1.2517395 -2.9549866l0.22573853 -1.908432l-0.22573853 0l0 -1.908432l-1.2517395 -2.9549866l-2.3393555 -1.8879089l-2.7292175 -1.0670776z" fill-rule="evenodd"/><path fill="#efefef" d="m283.49353 31.581549l-2.7292175 1.0465565l-2.3188171 1.9084282l-1.2722778 2.9549866l0 1.9084282l0 1.8879089l1.2722778 2.9549866l2.3188171 1.9084282l2.7292175 1.0465546l2.954956 0l2.7497253 -1.0465546l2.3188171 -1.9084282l1.2722778 -2.9549866l0.2052002 -1.8879089l-0.2052002 0l0 -1.9084282l-1.2722778 -2.9549866l-2.3188171 -1.9084282l-2.7497253 -1.0465565z" fill-rule="evenodd"/><path fill="#efefef" d="m283.49353 189.89902l-2.7292175 1.0465546l-2.3188171 1.908432l-1.2722778 2.9549866l0 1.8879089l0 1.908432l1.2722778 2.9549866l2.3188171 1.8878937l2.7292175 1.0670929l2.954956 0l2.7497253 -1.0670929l2.3188171 -1.8878937l1.2722778 -2.9549866l0.2052002 -1.908432l-0.2052002 0l0 -1.8879089l-1.2722778 -2.9549866l-2.3188171 -1.908432l-2.7497253 -1.0465546z" fill-rule="evenodd"/><path fill="#fbed32" d="m230.7354 242.65782l-2.7497406 1.0670776l-2.3188171 1.8879089l-1.2722626 2.9549866l0 1.908432l0 1.8879089l1.2722626 2.9549866l2.3188171 1.9084167l2.7497406 1.0465698l2.9549408 0l2.7497559 -1.0465698l2.3188019 -1.9084167l1.2722778 -2.9549866l0.2052002 -1.8879089l-0.2052002 0l0 -1.908432l-1.2722778 -2.9549866l-2.3188019 -1.8879089l-2.7497559 -1.0670776z" fill-rule="evenodd"/><path fill="#fbed32" d="m230.7354 137.11969l-2.7497406 1.0670776l-2.3188171 1.8879089l-1.2722626 2.9549866l0 1.908432l0 1.8878937l1.2722626 2.9549866l2.3188171 1.908432l2.7497406 1.0465546l2.9549408 0l2.7497559 -1.0465546l2.3188019 -1.908432l1.2722778 -2.9549866l0.2052002 -1.8878937l-0.2052002 0l0 -1.908432l-1.2722778 -2.9549866l-2.3188019 -1.8879089l-2.7497559 -1.0670776z" fill-rule="evenodd"/><path fill="#fbed32" d="m230.7354 84.36088l-2.7497406 1.0465546l-2.3188171 1.908432l-1.2722626 2.9549866l0 1.8879089l0 1.9084244l1.2722626 2.9549866l2.3188171 1.8879089l2.7497406 1.0670776l2.9549408 0l2.7497559 -1.0670776l2.3188019 -1.8879089l1.2722778 -2.9549866l0.2052002 -1.9084244l-0.2052002 0l0 -1.8879089l-1.2722778 -2.9549866l-2.3188019 -1.908432l-2.7497559 -1.0465546z" fill-rule="evenodd"/><path fill="#000000" fill-opacity="0.0" d="m3.0 24.936674l105.57481 0l0 27.653543l-105.57481 0z" fill-rule="evenodd"/><path fill="#efefef" d="m25.754494 47.303444l0 -17.1875l2.28125 0l0 17.1875l-2.28125 0zm6.0117188 0l0 -12.453125l1.90625 0l0 1.78125q1.375 -2.0625 3.953125 -2.0625q1.125 0 2.0625 0.40625q0.953125 0.40625 1.421875 1.0625q0.46875 0.65625 0.65625 1.5625q0.125 0.578125 0.125 2.046875l0 7.65625l-2.109375 0l0 -7.578125q0 -1.28125 -0.25 -1.921875q-0.25 -0.640625 -0.875 -1.015625q-0.625 -0.390625 -1.46875 -0.390625q-1.34375 0 -2.328125 0.859375q-0.984375 0.859375 -0.984375 3.25l0 6.796875l-2.109375 0zm13.347656 4.765625l0 -17.21875l1.921875 0l0 1.625q0.6875 -0.953125 1.53125 -1.421875q0.859375 -0.484375 2.078125 -0.484375q1.59375 0 2.8125 0.828125q1.21875 0.8125 1.84375 2.3125q0.625 1.5 0.625 3.28125q0 1.90625 -0.6875 3.4375q-0.6875 1.53125 -2.0 2.34375q-1.296875 0.8125 -2.734375 0.8125q-1.0625 0 -1.90625 -0.4375q-0.828125 -0.453125 -1.375 -1.140625l0 6.0625l-2.109375 0zm1.921875 -10.921875q0 2.40625 0.96875 3.5625q0.96875 1.140625 2.359375 1.140625q1.40625 0 2.40625 -1.1875q1.0 -1.1875 1.0 -3.6875q0 -2.375 -0.984375 -3.5625q-0.96875 -1.1875 -2.328125 -1.1875q-1.359375 0 -2.390625 1.265625q-1.03125 1.25 -1.03125 3.65625zm19.582031 6.15625l0 -1.828125q-1.453125 2.109375 -3.9375 2.109375q-1.109375 0 -2.0625 -0.421875q-0.953125 -0.421875 -1.421875 -1.0625q-0.453125 -0.640625 -0.640625 -1.5625q-0.140625 -0.625 -0.140625 -1.96875l0 -7.71875l2.109375 0l0 6.90625q0 1.65625 0.140625 2.234375q0.1875 0.828125 0.828125 1.3125q0.65625 0.46875 1.609375 0.46875q0.9375 0 1.765625 -0.484375q0.84375 -0.5 1.1875 -1.328125q0.34375 -0.84375 0.34375 -2.4375l0 -6.671875l2.109375 0l0 12.453125l-1.890625 0zm9.800781 -1.890625l0.3125 1.859375q-0.890625 0.203125 -1.59375 0.203125q-1.15625 0 -1.796875 -0.359375q-0.625 -0.375 -0.890625 -0.96875q-0.25 -0.59375 -0.25 -2.484375l0 -7.171875l-1.546875 0l0 -1.640625l1.546875 0l0 -3.078125l2.09375 -1.265625l0 4.34375l2.125 0l0 1.640625l-2.125 0l0 7.28125q0 0.90625 0.109375 1.171875q0.125 0.25 0.375 0.40625q0.25 0.140625 0.71875 0.140625q0.34375 0 0.921875 -0.078125zm7.1171875 1.890625l6.59375 -17.1875l2.453125 0l7.03125 17.1875l-2.59375 0l-2.0 -5.203125l-7.1875 0l-1.890625 5.203125l-2.40625 0zm4.953125 -7.0625l5.828125 0l-1.796875 -4.75q-0.8125 -2.171875 -1.21875 -3.5625q-0.328125 1.65625 -0.921875 3.28125l-1.890625 5.03125z" fill-rule="nonzero"/><path fill="#000000" fill-opacity="0.0" d="m3.0 132.37369l105.57481 0l0 27.653534l-105.57481 0z" fill-rule="evenodd"/><path fill="#efefef" d="m25.754494 154.74045l0 -17.1875l2.28125 0l0 17.1875l-2.28125 0zm6.0117188 0l0 -12.453125l1.90625 0l0 1.78125q1.375 -2.0625 3.953125 -2.0625q1.125 0 2.0625 0.40625q0.953125 0.40625 1.421875 1.0625q0.46875 0.65625 0.65625 1.5625q0.125 0.578125 0.125 2.046875l0 7.65625l-2.109375 0l0 -7.578125q0 -1.28125 -0.25 -1.921875q-0.25 -0.640625 -0.875 -1.015625q-0.625 -0.390625 -1.46875 -0.390625q-1.34375 0 -2.328125 0.859375q-0.984375 0.859375 -0.984375 3.25l0 6.796875l-2.109375 0zm13.347656 4.765625l0 -17.21875l1.921875 0l0 1.625q0.6875 -0.953125 1.53125 -1.421875q0.859375 -0.484375 2.078125 -0.484375q1.59375 0 2.8125 0.828125q1.21875 0.8125 1.84375 2.3125q0.625 1.5 0.625 3.28125q0 1.90625 -0.6875 3.4375q-0.6875 1.53125 -2.0 2.34375q-1.296875 0.8125 -2.734375 0.8125q-1.0625 0 -1.90625 -0.4375q-0.828125 -0.453125 -1.375 -1.140625l0 6.0625l-2.109375 0zm1.921875 -10.921875q0 2.40625 0.96875 3.5625q0.96875 1.140625 2.359375 1.140625q1.40625 0 2.40625 -1.1875q1.0 -1.1875 1.0 -3.6875q0 -2.375 -0.984375 -3.5625q-0.96875 -1.1875 -2.328125 -1.1875q-1.359375 0 -2.390625 1.265625q-1.03125 1.25 -1.03125 3.65625zm19.582031 6.15625l0 -1.828125q-1.453125 2.109375 -3.9375 2.109375q-1.109375 0 -2.0625 -0.421875q-0.953125 -0.421875 -1.421875 -1.0625q-0.453125 -0.640625 -0.640625 -1.5625q-0.140625 -0.625 -0.140625 -1.96875l0 -7.71875l2.109375 0l0 6.90625q0 1.65625 0.140625 2.234375q0.1875 0.828125 0.828125 1.3125q0.65625 0.46875 1.609375 0.46875q0.9375 0 1.765625 -0.484375q0.84375 -0.5 1.1875 -1.328125q0.34375 -0.84375 0.34375 -2.4375l0 -6.671875l2.109375 0l0 12.453125l-1.890625 0zm9.800781 -1.890625l0.3125 1.859375q-0.890625 0.203125 -1.59375 0.203125q-1.15625 0 -1.796875 -0.359375q-0.625 -0.375 -0.890625 -0.96875q-0.25 -0.59375 -0.25 -2.484375l0 -7.171875l-1.546875 0l0 -1.640625l1.546875 0l0 -3.078125l2.09375 -1.265625l0 4.34375l2.125 0l0 1.640625l-2.125 0l0 7.28125q0 0.90625 0.109375 1.171875q0.125 0.25 0.375 0.40625q0.25 0.140625 0.71875 0.140625q0.34375 0 0.921875 -0.078125zm8.9140625 1.890625l0 -17.1875l6.4375 0q1.96875 0 3.15625 0.53125q1.1875 0.515625 1.859375 1.609375q0.6875 1.078125 0.6875 2.265625q0 1.09375 -0.609375 2.078125q-0.59375 0.96875 -1.796875 1.5625q1.5625 0.453125 2.390625 1.5625q0.84375 1.09375 0.84375 2.59375q0 1.203125 -0.515625 2.25q-0.5 1.03125 -1.25 1.59375q-0.75 0.5625 -1.890625 0.859375q-1.125 0.28125 -2.765625 0.28125l-6.546875 0zm2.265625 -9.96875l3.71875 0q1.515625 0 2.171875 -0.1875q0.859375 -0.265625 1.296875 -0.859375q0.4375 -0.59375 0.4375 -1.5q0 -0.859375 -0.40625 -1.5q-0.40625 -0.65625 -1.171875 -0.890625q-0.765625 -0.25 -2.609375 -0.25l-3.4375 0l0 5.1875zm0 7.9375l4.28125 0q1.09375 0 1.546875 -0.078125q0.78125 -0.140625 1.3125 -0.46875q0.53125 -0.328125 0.859375 -0.953125q0.34375 -0.625 0.34375 -1.453125q0 -0.953125 -0.5 -1.65625q-0.484375 -0.71875 -1.359375 -1.0q-0.875 -0.296875 -2.515625 -0.296875l-3.96875 0l0 5.90625z" fill-rule="nonzero"/><path fill="#000000" fill-opacity="0.0" d="m565.2021 47.217514l139.24408 0l0 27.653542l-139.24408 0z" fill-rule="evenodd"/><path fill="#efefef" d="m575.2802 64.06866l2.140625 -0.1875q0.15625 1.28125 0.703125 2.109375q0.5625 0.828125 1.734375 1.34375q1.171875 0.5 2.640625 0.5q1.296875 0 2.296875 -0.375q1.0 -0.390625 1.484375 -1.0625q0.484375 -0.6875 0.484375 -1.484375q0 -0.796875 -0.46875 -1.40625q-0.46875 -0.609375 -1.546875 -1.015625q-0.6875 -0.265625 -3.0625 -0.828125q-2.359375 -0.578125 -3.3125 -1.078125q-1.234375 -0.640625 -1.84375 -1.59375q-0.59375 -0.96875 -0.59375 -2.140625q0 -1.3125 0.734375 -2.4375q0.75 -1.125 2.15625 -1.703125q1.421875 -0.59375 3.15625 -0.59375q1.90625 0 3.359375 0.609375q1.46875 0.609375 2.25 1.8125q0.796875 1.1875 0.84375 2.703125l-2.171875 0.171875q-0.171875 -1.640625 -1.1875 -2.46875q-1.015625 -0.828125 -3.0 -0.828125q-2.0625 0 -3.015625 0.765625q-0.9375 0.75 -0.9375 1.8125q0 0.921875 0.671875 1.515625q0.65625 0.609375 3.421875 1.234375q2.78125 0.625 3.8125 1.09375q1.5 0.6875 2.203125 1.75q0.71875 1.0625 0.71875 2.4375q0 1.375 -0.78125 2.59375q-0.78125 1.203125 -2.25 1.890625q-1.46875 0.671875 -3.3125 0.671875q-2.328125 0 -3.90625 -0.671875q-1.578125 -0.6875 -2.484375 -2.046875q-0.890625 -1.375 -0.9375 -3.09375zm24.664062 5.515625l0 -1.828125q-1.453125 2.109375 -3.9375 2.109375q-1.109375 0 -2.0625 -0.421875q-0.953125 -0.421875 -1.421875 -1.0625q-0.453125 -0.640625 -0.640625 -1.5625q-0.140625 -0.625 -0.140625 -1.96875l0 -7.71875l2.109375 0l0 6.90625q0 1.65625 0.140625 2.234375q0.1875 0.828125 0.828125 1.3125q0.65625 0.46875 1.609375 0.46875q0.9375 0 1.765625 -0.484375q0.84375 -0.5 1.1875 -1.328125q0.34375 -0.84375 0.34375 -2.4375l0 -6.671875l2.109375 0l0 12.453125l-1.890625 0zm5.1914062 0l0 -12.453125l1.890625 0l0 1.75q0.59375 -0.90625 1.5625 -1.46875q0.96875 -0.5625 2.21875 -0.5625q1.375 0 2.25 0.578125q0.890625 0.578125 1.265625 1.609375q1.46875 -2.1875 3.84375 -2.1875q1.84375 0 2.84375 1.03125q1.0 1.03125 1.0 3.15625l0 8.546875l-2.109375 0l0 -7.84375q0 -1.265625 -0.203125 -1.8125q-0.203125 -0.5625 -0.75 -0.90625q-0.53125 -0.34375 -1.25 -0.34375q-1.3125 0 -2.1875 0.875q-0.859375 0.875 -0.859375 2.796875l0 7.234375l-2.109375 0l0 -8.09375q0 -1.40625 -0.515625 -2.109375q-0.515625 -0.703125 -1.6875 -0.703125q-0.890625 0 -1.65625 0.46875q-0.75 0.46875 -1.09375 1.375q-0.34375 0.90625 -0.34375 2.609375l0 6.453125l-2.109375 0zm26.238281 -8.375q0 -4.265625 2.296875 -6.6875q2.296875 -2.421875 5.9375 -2.421875q2.375 0 4.28125 1.140625q1.921875 1.125 2.921875 3.171875q1.0 2.03125 1.0 4.609375q0 2.609375 -1.0625 4.671875q-1.046875 2.0625 -2.984375 3.125q-1.9375 1.0625 -4.171875 1.0625q-2.421875 0 -4.34375 -1.171875q-1.90625 -1.171875 -2.890625 -3.203125q-0.984375 -2.03125 -0.984375 -4.296875zm2.34375 0.046875q0 3.09375 1.671875 4.890625q1.671875 1.78125 4.1875 1.78125q2.578125 0 4.234375 -1.796875q1.65625 -1.8125 1.65625 -5.125q0 -2.09375 -0.71875 -3.65625q-0.703125 -1.578125 -2.078125 -2.4375q-1.359375 -0.859375 -3.046875 -0.859375q-2.421875 0 -4.171875 1.65625q-1.734375 1.65625 -1.734375 5.546875zm24.902344 8.328125l0 -1.828125q-1.453125 2.109375 -3.9375 2.109375q-1.109375 0 -2.0625 -0.421875q-0.953125 -0.421875 -1.421875 -1.0625q-0.453125 -0.640625 -0.640625 -1.5625q-0.140625 -0.625 -0.140625 -1.96875l0 -7.71875l2.109375 0l0 6.90625q0 1.65625 0.140625 2.234375q0.1875 0.828125 0.828125 1.3125q0.65625 0.46875 1.609375 0.46875q0.9375 0 1.765625 -0.484375q0.84375 -0.5 1.1875 -1.328125q0.34375 -0.84375 0.34375 -2.4375l0 -6.671875l2.109375 0l0 12.453125l-1.890625 0zm9.800781 -1.890625l0.3125 1.859375q-0.890625 0.203125 -1.59375 0.203125q-1.15625 0 -1.796875 -0.359375q-0.625 -0.375 -0.890625 -0.96875q-0.25 -0.59375 -0.25 -2.484375l0 -7.171875l-1.546875 0l0 -1.640625l1.546875 0l0 -3.078125l2.09375 -1.265625l0 4.34375l2.125 0l0 1.640625l-2.125 0l0 7.28125q0 0.90625 0.109375 1.171875q0.125 0.25 0.375 0.40625q0.25 0.140625 0.71875 0.140625q0.34375 0 0.921875 -0.078125z" fill-rule="nonzero"/><path fill="#000000" fill-opacity="0.0" d="m565.2021 211.53247l139.24408 0l0 27.65355l-139.24408 0z" fill-rule="evenodd"/><path fill="#efefef" d="m588.31146 227.868l2.28125 0.578125q-0.71875 2.796875 -2.578125 4.28125q-1.859375 1.46875 -4.546875 1.46875q-2.765625 0 -4.515625 -1.125q-1.734375 -1.140625 -2.640625 -3.28125q-0.90625 -2.15625 -0.90625 -4.609375q0 -2.6875 1.015625 -4.6875q1.03125 -2.0 2.921875 -3.03125q1.890625 -1.03125 4.171875 -1.03125q2.578125 0 4.328125 1.3125q1.765625 1.3125 2.453125 3.6875l-2.234375 0.53125q-0.609375 -1.875 -1.75 -2.734375q-1.125 -0.859375 -2.84375 -0.859375q-1.984375 0 -3.3125 0.953125q-1.328125 0.953125 -1.875 2.546875q-0.53125 1.59375 -0.53125 3.296875q0 2.1875 0.625 3.828125q0.640625 1.640625 1.984375 2.453125q1.359375 0.796875 2.921875 0.796875q1.921875 0 3.234375 -1.09375q1.328125 -1.109375 1.796875 -3.28125zm12.925781 4.5q-1.171875 0.984375 -2.265625 1.40625q-1.078125 0.40625 -2.3125 0.40625q-2.046875 0 -3.15625 -1.0q-1.09375 -1.0 -1.09375 -2.5625q0 -0.921875 0.40625 -1.671875q0.421875 -0.75 1.09375 -1.203125q0.671875 -0.46875 1.515625 -0.703125q0.625 -0.15625 1.875 -0.3125q2.5625 -0.3125 3.765625 -0.734375q0.015625 -0.421875 0.015625 -0.546875q0 -1.28125 -0.609375 -1.8125q-0.796875 -0.71875 -2.390625 -0.71875q-1.5 0 -2.203125 0.53125q-0.703125 0.515625 -1.046875 1.84375l-2.0625 -0.28125q0.28125 -1.328125 0.921875 -2.140625q0.640625 -0.8125 1.859375 -1.25q1.21875 -0.453125 2.828125 -0.453125q1.59375 0 2.59375 0.375q1.0 0.375 1.46875 0.953125q0.46875 0.5625 0.65625 1.4375q0.09375 0.53125 0.09375 1.9375l0 2.8125q0 2.9375 0.140625 3.71875q0.140625 0.78125 0.53125 1.5l-2.203125 0q-0.328125 -0.65625 -0.421875 -1.53125zm-0.171875 -4.71875q-1.15625 0.46875 -3.453125 0.796875q-1.296875 0.1875 -1.84375 0.421875q-0.53125 0.234375 -0.828125 0.6875q-0.28125 0.453125 -0.28125 1.0q0 0.84375 0.625 1.40625q0.640625 0.5625 1.875 0.5625q1.21875 0 2.171875 -0.53125q0.953125 -0.53125 1.390625 -1.453125q0.34375 -0.71875 0.34375 -2.109375l0 -0.78125zm5.3789062 6.25l0 -12.453125l1.890625 0l0 1.890625q0.734375 -1.328125 1.34375 -1.75q0.625 -0.421875 1.359375 -0.421875q1.0625 0 2.171875 0.6875l-0.734375 1.953125q-0.765625 -0.453125 -1.546875 -0.453125q-0.6875 0 -1.25 0.421875q-0.546875 0.40625 -0.78125 1.140625q-0.34375 1.125 -0.34375 2.46875l0 6.515625l-2.109375 0zm7.9921875 0l0 -12.453125l1.890625 0l0 1.890625q0.734375 -1.328125 1.34375 -1.75q0.625 -0.421875 1.359375 -0.421875q1.0625 0 2.171875 0.6875l-0.734375 1.953125q-0.765625 -0.453125 -1.546875 -0.453125q-0.6875 0 -1.25 0.421875q-0.546875 0.40625 -0.78125 1.140625q-0.34375 1.125 -0.34375 2.46875l0 6.515625l-2.109375 0zm7.9140625 4.796875l-0.234375 -1.984375q0.703125 0.1875 1.21875 0.1875q0.703125 0 1.125 -0.234375q0.421875 -0.234375 0.6875 -0.65625q0.203125 -0.3125 0.640625 -1.5625q0.0625 -0.1875 0.1875 -0.515625l-4.71875 -12.484375l2.265625 0l2.59375 7.21875q0.5 1.359375 0.90625 2.875q0.359375 -1.453125 0.859375 -2.828125l2.671875 -7.265625l2.109375 0l-4.734375 12.671875q-0.765625 2.046875 -1.1875 2.8125q-0.5625 1.046875 -1.296875 1.53125q-0.71875 0.484375 -1.734375 0.484375q-0.609375 0 -1.359375 -0.25zm18.339844 -13.171875q0 -4.265625 2.296875 -6.6875q2.296875 -2.421875 5.9375 -2.421875q2.375 0 4.28125 1.140625q1.921875 1.125 2.921875 3.171875q1.0 2.03125 1.0 4.609375q0 2.609375 -1.0625 4.671875q-1.046875 2.0625 -2.984375 3.125q-1.9375 1.0625 -4.171875 1.0625q-2.421875 0 -4.34375 -1.171875q-1.90625 -1.171875 -2.890625 -3.203125q-0.984375 -2.03125 -0.984375 -4.296875zm2.34375 0.046875q0 3.09375 1.671875 4.890625q1.671875 1.78125 4.1875 1.78125q2.578125 0 4.234375 -1.796875q1.65625 -1.8125 1.65625 -5.125q0 -2.09375 -0.71875 -3.65625q-0.703125 -1.578125 -2.078125 -2.4375q-1.359375 -0.859375 -3.046875 -0.859375q-2.421875 0 -4.171875 1.65625q-1.734375 1.65625 -1.734375 5.546875zm24.902344 8.328125l0 -1.828125q-1.453125 2.109375 -3.9375 2.109375q-1.109375 0 -2.0625 -0.421875q-0.953125 -0.421875 -1.421875 -1.0625q-0.453125 -0.640625 -0.640625 -1.5625q-0.140625 -0.625 -0.140625 -1.96875l0 -7.71875l2.109375 0l0 6.90625q0 1.65625 0.140625 2.234375q0.1875 0.828125 0.828125 1.3125q0.65625 0.46875 1.609375 0.46875q0.9375 0 1.765625 -0.484375q0.84375 -0.5 1.1875 -1.328125q0.34375 -0.84375 0.34375 -2.4375l0 -6.671875l2.109375 0l0 12.453125l-1.890625 0zm9.800781 -1.890625l0.3125 1.859375q-0.890625 0.203125 -1.59375 0.203125q-1.15625 0 -1.796875 -0.359375q-0.625 -0.375 -0.890625 -0.96875q-0.25 -0.59375 -0.25 -2.484375l0 -7.171875l-1.546875 0l0 -1.640625l1.546875 0l0 -3.078125l2.09375 -1.265625l0 4.34375l2.125 0l0 1.640625l-2.125 0l0 7.28125q0 0.90625 0.109375 1.171875q0.125 0.25 0.375 0.40625q0.25 0.140625 0.71875 0.140625q0.34375 0 0.921875 -0.078125z" fill-rule="nonzero"/></g></svg>