<?xml version="1.0" encoding="UTF-8"?>
<!-- Created with Inkscape (http://www.inkscape.org/) -->
<svg width="414" height="530" version="1.0" xml:space="preserve" xmlns="http://www.w3.org/2000/svg" xmlns:cc="http://creativecommons.org/ns#" xmlns:dc="http://purl.org/dc/elements/1.1/" xmlns:rdf="http://www.w3.org/1999/02/22-rdf-syntax-ns#">
<defs>
<style>
text { font-family: 'DejaVu Sans', Sans, sans-serif; font-size:18px; fill: #000000; }
tspan { stroke-width: .9217 }
rect { fill: #000000; }
circle { fill: #000000; }
</style>
</defs>
<metadata><rdf:RDF><cc:Work rdf:about="">
<dc:format>image/svg+xml</dc:format>
<dc:type rdf:resource="http://purl.org/dc/dcmitype/StillImage"/>
</cc:Work></rdf:RDF></metadata>

<text x="67.239998" y="24.529999" style="font-size:22px">International Morse Code</text>
<text x="46.919998" y="48.189999" style="font-size:10.14px;line-height:125%" xml:space="preserve">
<tspan x="46.919998" y="48.189999">1. The length of a dot is one unit.</tspan>
<tspan x="46.919998" y="60.860001">2. A dash is three units.</tspan>
<tspan x="46.919998" y="73.540001">3. The space between parts of the same letter is one unit.</tspan>
<tspan x="46.919998" y="86.209999">4. The space between letters is three units.</tspan>
<tspan x="46.919998" y="98.879997">5. The space between words is seven units.</tspan>
</text>
<circle cx="231.2" cy="140.1" r="4.609"/>
<rect x="263.5" y="135.5" width="27.65" height="9.217"/>
<circle cx="249.6" cy="140.1" r="4.609"/>
<circle cx="231.2" cy="158.5" r="4.609"/>
<circle cx="249.6" cy="158.5" r="4.609"/>
<circle cx="268.1" cy="158.5" r="4.609"/>
<rect x="281.9" y="153.9" width="27.65" height="9.217"/>
<circle cx="231.2" cy="176.9" r="4.609"/>
<rect x="245" y="172.3" width="27.65" height="9.217"/>
<rect x="281.9" y="172.3" width="27.65" height="9.217"/>
<rect x="226.6" y="190.8" width="27.65" height="9.217"/>
<circle cx="268.1" cy="195.4" r="4.609"/>
<circle cx="286.5" cy="195.4" r="4.609"/>
<rect x="300.3" y="190.8" width="27.65" height="9.217"/>
<rect x="226.6" y="209.2" width="27.65" height="9.217"/>
<rect x="281.9" y="209.2" width="27.65" height="9.217"/>
<rect x="318.8" y="209.2" width="27.65" height="9.217"/>
<circle cx="268.1" cy="213.8" r="4.609"/>
<rect x="226.6" y="227.6" width="27.65" height="9.217"/>
<rect x="263.5" y="227.6" width="27.65" height="9.217"/>
<circle cx="304.9" cy="232.2" r="4.609"/>
<circle cx="323.4" cy="232.2" r="4.609"/>
<text x="207.12" y="144.67">U</text>
<text x="207.64" y="163.10001">V</text>
<text x="205.05" y="181.31">W</text>
<text x="207.63" y="199.97">X</text>
<text x="207.66" y="218.41">Y</text>
<text x="208.17" y="236.84">Z</text>
<circle cx="37.65" cy="140.1" r="4.609"/>
<rect x="51.49" y="135.5" width="27.65" height="9.217"/>
<circle cx="74.76" cy="158.5" r="4.609"/>
<circle cx="92.95" cy="158.8" r="4.609"/>
<circle cx="111.4" cy="158.5" r="4.609"/>
<rect x="33.05" y="172.3" width="27.65" height="9.217"/>
<circle cx="74.49" cy="176.9" r="4.609"/>
<rect x="88.36" y="172.3" width="27.65" height="9.217"/>
<circle cx="129.9" cy="176.9" r="4.609"/>
<rect x="33.05" y="190.8" width="27.65" height="9.217"/>
<circle cx="74.43" cy="195.4" r="4.609"/>
<circle cx="92.95" cy="195.6" r="4.609"/>
<circle cx="37.65" cy="213.8" r="4.609"/>
<circle cx="37.65" cy="232.2" r="4.609"/>
<circle cx="56.09" cy="232.2" r="4.609"/>
<rect x="69.92" y="227.6" width="27.65" height="9.217"/>
<circle cx="111.4" cy="232.2" r="4.609"/>
<rect x="33.05" y="246.1" width="27.65" height="9.217"/>
<rect x="69.92" y="246.1" width="27.65" height="9.217"/>
<circle cx="111.4" cy="250.7" r="4.609"/>
<circle cx="37.65" cy="269.1" r="4.609"/>
<circle cx="56.09" cy="269.1" r="4.609"/>
<circle cx="74.52" cy="269.1" r="4.609"/>
<circle cx="92.95" cy="269.1" r="4.609"/>
<circle cx="37.65" cy="287.5" r="4.609"/>
<circle cx="56.09" cy="287.5" r="4.609"/>
<circle cx="37.65" cy="306" r="4.609"/>
<rect x="51.49" y="301.4" width="27.65" height="9.217"/>
<rect x="88.36" y="301.4" width="27.65" height="9.217"/>
<rect x="125.2" y="301.4" width="27.65" height="9.217"/>
<rect x="33.05" y="319.8" width="27.65" height="9.217"/>
<circle cx="74.52" cy="324.4" r="4.609"/>
<rect x="88.36" y="319.8" width="27.65" height="9.217"/>
<circle cx="37.65" cy="342.8" r="4.609"/>
<rect x="51.49" y="338.2" width="27.65" height="9.217"/>
<circle cx="92.95" cy="342.8" r="4.609"/>
<circle cx="111.4" cy="342.8" r="4.609"/>
<rect x="33.05" y="356.7" width="27.65" height="9.217"/>
<rect x="69.92" y="356.7" width="27.65" height="9.217"/>
<rect x="33.05" y="375.1" width="27.65" height="9.217"/>
<circle cx="74.52" cy="379.7" r="4.609"/>
<rect x="33.05" y="393.5" width="27.65" height="9.217"/>
<rect x="69.92" y="393.5" width="27.65" height="9.217"/>
<rect x="106.8" y="393.5" width="27.65" height="9.217"/>
<circle cx="37.65" cy="416.6" r="4.609"/>
<rect x="51.49" y="412" width="27.65" height="9.217"/>
<rect x="88.36" y="412" width="27.65" height="9.217"/>
<circle cx="129.8" cy="416.6" r="4.609"/>
<rect x="33.05" y="430.4" width="27.65" height="9.217"/>
<rect x="69.92" y="430.4" width="27.65" height="9.217"/>
<circle cx="111.4" cy="435" r="4.609"/>
<rect x="125.2" y="430.4" width="27.65" height="9.217"/>
<circle cx="37.65" cy="453.5" r="4.609"/>
<rect x="51.49" y="448.8" width="27.65" height="9.217"/>
<circle cx="92.95" cy="453.5" r="4.609"/>
<circle cx="74.52" cy="471.9" r="4.609"/>
<circle cx="56.09" cy="471.9" r="4.609"/>
<circle cx="37.65" cy="471.9" r="4.609"/>
<rect x="33.05" y="485.7" width="27.65" height="9.217"/>
<text x="13.32" y="144.67">A</text>
<text x="13.13" y="163.10">B</text>
<text x="12.71" y="181.31">C</text>
<text x="12.59" y="199.97">D</text>
<text x="13.08" y="218.41">E</text>
<text x="13.50" y="236.84">F</text>
<text x="12.38" y="255.05">G</text>
<text x="12.81" y="273.71">H</text>
<text x="16.87" y="292.14">I</text>
<text x="15.32" y="310.58">J</text>
<text x="12.66" y="329.01">K</text>
<text x="13.99" y="347.45">L</text>
<text x="11.80" y="365.88">M</text>
<text x="12.86" y="384.32">N</text>
<text x="12.26" y="402.75">O</text>
<text x="12.24" y="439.62">Q</text>
<text x="13.01" y="421.18">P</text>
<text x="12.20" y="458.05">R</text>
<text x="13.38" y="476.49">S</text>
<text x="13.80" y="494.92">T</text>
<rect x="33.05" y="153.9" width="27.65" height="9.217"/>
<rect x="245.0" y="319.6" width="27.65" height="9.217"/>
<rect x="281.9" y="319.6" width="27.65" height="9.217"/>
<rect x="281.9" y="319.6" width="27.65" height="9.217"/>
<rect x="318.8" y="319.6" width="27.65" height="9.217"/>
<rect x="355.7" y="319.6" width="27.65" height="9.217"/>
<circle cx="231.2" cy="324.2" r="4.609"/>
<circle cx="231.2" cy="342.6" r="4.609"/>
<circle cx="249.6" cy="342.6" r="4.609"/>
<rect x="263.5" y="338" width="27.65" height="9.217"/>
<rect x="300.3" y="338" width="27.65" height="9.217"/>
<rect x="337.2" y="338" width="27.65" height="9.217"/>
<circle cx="231.2" cy="361.1" r="4.609"/>
<circle cx="249.6" cy="361.1" r="4.609"/>
<circle cx="268.1" cy="361.1" r="4.609"/>
<rect x="281.9" y="356.4" width="27.65" height="9.217"/>
<rect x="318.8" y="356.4" width="27.65" height="9.217"/>
<circle cx="231.2" cy="379.5" r="4.609"/>
<circle cx="249.6" cy="379.5" r="4.609"/>
<circle cx="268.1" cy="379.5" r="4.609"/>
<circle cx="286.5" cy="379.5" r="4.609"/>
<rect x="300.3" y="374.9" width="27.65" height="9.217"/>
<circle cx="231.2" cy="397.9" r="4.609"/>
<circle cx="249.6" cy="397.9" r="4.609"/>
<circle cx="268.1" cy="397.9" r="4.609"/>
<circle cx="286.5" cy="397.9" r="4.609"/>
<circle cx="304.9" cy="397.9" r="4.609"/>
<circle cx="268.1" cy="416.4" r="4.609"/>
<circle cx="286.5" cy="416.4" r="4.609"/>
<circle cx="304.9" cy="416.4" r="4.609"/>
<circle cx="323.4" cy="416.4" r="4.609"/>
<rect x="226.6" y="411.7" width="27.65" height="9.217"/>
<circle cx="231.2" cy="361.1" r="4.609"/>
<circle cx="249.6" cy="361.1" r="4.609"/>
<circle cx="268.1" cy="361.1" r="4.609"/>
<rect x="281.9" y="356.4" width="27.65" height="9.217"/>
<rect x="318.8" y="356.4" width="27.65" height="9.217"/>
<circle cx="304.9" cy="434.8" r="4.609"/>
<circle cx="323.4" cy="434.8" r="4.609"/>
<circle cx="341.8" cy="434.8" r="4.609"/>
<rect x="226.6" y="430.2" width="27.65" height="9.217"/>
<rect x="263.5" y="430.2" width="27.65" height="9.217"/>
<circle cx="341.8" cy="453.2" r="4.609"/>
<circle cx="360.3" cy="453.2" r="4.609"/>
<rect x="263.5" y="448.6" width="27.65" height="9.217"/>
<rect x="300.3" y="448.6" width="27.65" height="9.217"/>
<rect x="226.6" y="448.6" width="27.65" height="9.217"/>
<rect x="226.6" y="467.0" width="27.65" height="9.217"/>
<rect x="263.5" y="467.0" width="27.65" height="9.217"/>
<rect x="263.5" y="467.0" width="27.65" height="9.217"/>
<rect x="300.3" y="467.0" width="27.65" height="9.217"/>
<rect x="337.2" y="467.0" width="27.65" height="9.217"/>
<rect x="226.6" y="485.5" width="27.65" height="9.217"/>
<circle cx="378.7" cy="471.7" r="4.609"/>
<rect x="263.5" y="485.5" width="27.65" height="9.217"/>
<rect x="300.3" y="485.5" width="27.65" height="9.217"/>
<rect x="300.3" y="485.5" width="27.65" height="9.217"/>
<rect x="337.2" y="485.5" width="27.65" height="9.217"/>
<rect x="374.1" y="485.5" width="27.65" height="9.217"/>
<text x="209.50" y="328.79">1</text>
<text x="209.03" y="347.22">2</text>
<text x="208.84" y="365.43">3</text>
<text x="209.14" y="384.09">4</text>
<text x="208.80" y="402.52">5</text>
<text x="208.89" y="420.96">6</text>
<text x="208.79" y="439.17">7</text>
<text x="208.84" y="457.82">8</text>
<text x="208.83" y="476.26">9</text>
<text x="208.87" y="494.70">0</text>
</svg>
