<svg version="1.1" viewBox="0.0 0.0 280.0 280.0" fill="none" stroke="none" stroke-linecap="square" stroke-miterlimit="10" xmlns:xlink="http://www.w3.org/1999/xlink" xmlns="http://www.w3.org/2000/svg"><clipPath id="p.0"><path d="m0 0l280.0 0l0 280.0l-280.0 0l0 -280.0z" clip-rule="nonzero"/></clipPath><g clip-path="url(#p.0)"><path fill="#000000" fill-opacity="0.0" d="m0 0l280.0 0l0 280.0l-280.0 0z" fill-rule="evenodd"/><path fill="#000000" fill-opacity="0.0" d="m4.3307085 49.77518l0 0c0 -24.915644 20.19812 -45.11376 45.113766 -45.11376l181.11105 0l0 0c11.96492 0 23.439774 4.7530437 31.900253 13.213516c8.46048 8.46047 13.213501 19.935335 13.213501 31.900248l0 180.44965c0 24.915634 -20.198105 45.11377 -45.113754 45.11377l-181.11105 0l0 0c-24.915646 0 -45.113766 -20.198135 -45.113766 -45.11377z" fill-rule="evenodd"/><path stroke="#000000" stroke-width="8.0" stroke-linejoin="round" stroke-linecap="butt" d="m4.3307085 49.77518l0 0c0 -24.915644 20.19812 -45.11376 45.113766 -45.11376l181.11105 0l0 0c11.96492 0 23.439774 4.7530437 31.900253 13.213516c8.46048 8.46047 13.213501 19.935335 13.213501 31.900248l0 180.44965c0 24.915634 -20.198105 45.11377 -45.113754 45.11377l-181.11105 0l0 0c-24.915646 0 -45.113766 -20.198135 -45.113766 -45.11377z" fill-rule="evenodd"/><path fill="#000000" d="m113.80461 33.919373l-5.2083664 2.3152122l-4.05249 3.7626534l-2.0271072 5.2100945l-0.28983307 3.182991l0 34.44528l5.4999313 0l3.7626495 -0.8694992l0.57966614 0l0.28983307 -0.28983307l0 -33.285946l0.28810883 -2.025383l2.3169403 -2.0253792l1.7355499 -0.28983307l125.90831 0l2.0253906 0.28983307l2.0270996 2.3152122l0.2898407 1.7355499l0 75.25653l-0.2898407 1.7355499l-2.315216 2.3169403l-1.7372742 0.28810883l-125.90831 0l-1.7355499 -0.28810883l-2.3169403 -2.3169403l-0.28810883 -1.7355499l0 -8.972748l-4.0524826 0.5779419l-4.920265 0.28983307l-1.1593323 0l0 8.394806l0.28983307 2.893158l2.0271072 4.9202576l4.05249 4.05249l5.2083664 2.0270996l2.8948822 0.28811646l125.90831 0l3.1829987 -0.28811646l5.210083 -2.0270996l3.7626648 -4.05249l2.316925 -5.2083664l0.28811646 -2.8948822l0 -75.25653l-0.28811646 -3.182991l-2.316925 -5.2100945l-3.7626648 -3.7626534l-5.210083 -2.3152122z" fill-rule="evenodd"/><path fill="#000000" d="m57.652905 72.41541l-1.157608 0.5779419l-0.5779419 1.157608l0 3.1847153l0.5779419 1.1576004l1.157608 0.57966614l0.28983307 0l-2.315216 11.287964l-6.947365 -17.657387l-2.6050491 0.28983307l-4.9202614 1.7372742l-6.0778694 4.3423157l-6.0778675 8.393089l-3.7626534 7.81514l-0.8694992 2.8948822l-2.025381 13.893005l-0.8694992 13.313347l0.28983307 3.1847153l4.0524864 4.3423157l2.8948803 0.5779419l0.5779419 0l0 0.2898407l2.8948803 -0.2898407l4.3423195 -4.05249l0.5779419 -2.8931503l0.57966614 -15.342178l1.4474411 -8.393082l0.86777115 -3.182991l2.025383 -3.4745407l0 37.9181l0.28983307 1.7355499l2.3152122 2.315216l1.7372742 0.28982544l27.20808 0l1.7355499 -0.28982544l2.3169403 -2.315216l0 -1.7355499l0 -41.10109l2.3152084 2.025383l1.4474411 1.7372742l4.920265 4.9202576l4.9202576 2.8948822l3.472824 1.157608l7.81514 0.86777496l10.710022 -0.5779419l3.182991 -0.8694992l2.8948746 -1.157608l3.1847153 -4.920265l-0.28983307 -3.1847076l-1.157608 -2.893158l-4.9202576 -3.1847153l-3.1847153 0.28983307l-3.7626572 0.86777496l-8.972748 0.28983307l-2.8948746 -0.86777496l-2.315216 -1.7372742l-2.8948822 -2.8948746l-4.3405914 -4.340599l-7.8151474 -6.07959l-6.0778656 -2.315216l-3.1847153 -0.28983307l-6.6575317 17.657387l-2.6050491 -11.287964l0.28983307 0l1.4474411 -0.57966614l0.28983307 -1.1576004l0 -3.1847153l-0.28983307 -1.157608l-1.4474411 -0.5779419z" fill-rule="evenodd"/><path fill="#000000" d="m59.68001 31.314323l-3.4745483 0.28983307l-6.6558075 2.6050491l-4.9219894 4.9202614l-2.6050453 6.3676987l-0.28810883 3.7626572l0.28810883 3.7626534l2.6050453 6.3677025l4.9219894 4.9202614l6.6558075 2.6050491l3.4745483 0.28983307l3.7626534 -0.28983307l6.3676987 -2.6050491l4.920265 -4.9202614l2.8948822 -6.3677025l0 -3.7626534l0 -3.7626572l-2.8948822 -6.3676987l-4.920265 -4.9202614l-6.3676987 -2.6050491l-3.7626534 -0.28983307z" fill-rule="evenodd"/><path fill="#000000" d="m59.68001 150.27527l-3.4745483 0.2898407l-6.6558075 2.8948822l-4.9219894 4.9202576l-2.6050453 6.3677063l-0.28810883 3.4728088l0.28810883 3.7626648l2.6050453 6.367691l4.9219894 4.920273l6.6558075 2.8948822l3.4745483 0.28982544l3.7626534 -0.28982544l6.3676987 -2.8948822l4.920265 -4.920273l2.8948822 -6.367691l0 -3.7626648l0 -3.4728088l-2.8948822 -6.3677063l-4.920265 -4.9202576l-6.3676987 -2.8948822l-3.7626534 -0.2898407z" fill-rule="evenodd"/><path fill="#000000" d="m48.680157 191.9543l-4.05249 0.57966614l-6.9456406 4.342331l-2.315216 4.0507507l-0.8694992 1.1593323l-4.3405933 8.393082l-2.8948803 7.2354736l-2.3152142 10.999863l-1.4474411 6.945648l0 2.894867l2.8948803 4.342331l2.6050472 0.86776733l0.86777496 0l0.57794 0.2898407l2.3169403 -0.2898407l3.4728203 -2.8948822l0.86777496 -2.315216l1.157608 -6.6575317l2.6050453 -10.708298l0.8694992 -2.8948822l1.7355499 -3.7626495l-0.5779419 29.813126l0 1.7355499l2.6050453 2.315216l1.4474411 0.28982544l25.180973 0l2.025383 -0.28982544l2.3169403 -2.315216l0 -1.7355499l-0.8694992 -29.813126l1.7372742 3.7626495l0.86776733 2.8948822l2.315216 10.708298l1.4474411 6.6575317l0.8694992 2.6050568l4.340599 2.8948822l2.8948746 0l2.6050491 -0.8677826l2.8948822 -4.3423157l0 -2.8948822l-1.157608 -7.2354736l-2.3169403 -10.999863l-2.893158 -7.2354736l-4.3423157 -8.393082l-0.86777496 -1.1593323l-2.6050491 -4.0507507l-6.6575317 -4.342331l-4.3423233 -0.57966614z" fill-rule="evenodd"/><path fill="#000000" d="m141.0127 150.27527l-3.472824 0.2898407l-6.3677063 2.8948822l-4.9202576 4.9202576l-2.8948822 6.3677063l-0.28983307 3.4728088l0.28983307 3.7626648l2.8948822 6.367691l4.9202576 4.920273l6.3677063 2.8948822l3.472824 0.28982544l3.7626495 -0.28982544l6.3677063 -2.8948822l4.9202576 -4.920273l2.8948822 -6.367691l0.28982544 -3.7626648l-0.28982544 -3.4728088l-2.8948822 -6.3677063l-4.9202576 -4.9202576l-6.3677063 -2.8948822l-3.7626495 -0.2898407z" fill-rule="evenodd"/><path fill="#000000" d="m130.01456 191.9543l-4.0524826 0.57966614l-6.9473724 4.342331l-2.3152084 4.0507507l-0.86777496 1.1593323l-4.3423233 8.393082l-2.8931503 7.2354736l-2.3169403 10.999863l-1.4474411 6.945648l0 2.894867l2.8948822 4.342331l2.6050415 0.86776733l0.86777496 0l0.57966614 0.2898407l2.315216 -0.2898407l3.4745483 -2.8948822l0.86777496 -2.315216l1.1576004 -6.6575317l2.6050491 -10.708298l0.86777496 -2.8948822l1.7372742 -3.7626495l-0.86777496 29.813126l0.28810883 1.7355499l2.3169403 2.315216l1.7355423 0.28982544l25.182709 0l1.7355499 -0.28982544l2.3152008 -2.315216l0 -1.7355499l-0.86776733 -29.813126l1.7372742 3.7626495l0.86776733 2.8948822l2.6050568 10.708298l1.157608 6.6575317l0.86776733 2.6050568l4.3423157 2.8948822l2.8948822 0l2.6050568 -0.8677826l2.8931427 -4.3423157l0 -2.8948822l-0.86776733 -7.2354736l-2.315216 -10.999863l-2.8948822 -7.2354736l-4.3405914 -8.393082l-0.8694916 -1.1593323l-2.315216 -4.0507507l-6.9473724 -4.342331l-4.050766 -0.57966614z" fill-rule="evenodd"/><path fill="#000000" d="m222.63693 150.27527l-3.764389 0.2898407l-6.367691 2.8948822l-4.920273 4.9202576l-2.8931427 6.3677063l0 3.4728088l0 3.7626648l2.8931427 6.367691l4.920273 4.920273l6.367691 2.8948822l3.764389 0.28982544l3.472824 -0.28982544l6.6575317 -2.8948822l4.630432 -4.920273l2.894867 -6.367691l0.2898407 -3.7626648l-0.2898407 -3.4728088l-2.894867 -6.3677063l-4.630432 -4.9202576l-6.6575317 -2.8948822l-3.472824 -0.2898407z" fill-rule="evenodd"/><path fill="#000000" d="m211.63707 191.9543l-4.3405914 0.57966614l-6.6575317 4.342331l-2.6050568 4.0507507l-0.57966614 1.1593323l-4.3405914 8.393082l-2.8948822 7.2354736l-2.315216 10.999863l-1.4474335 6.945648l0 2.894867l2.8948822 4.342331l2.6033173 0.86776733l0.86950684 0l0.5779419 0.2898407l2.3169403 -0.2898407l3.4728088 -2.8948822l0.8677826 -2.315216l1.157608 -6.6575317l2.6050415 -10.708298l0.86950684 -2.8948822l1.7355499 -3.7626495l-0.8677826 29.813126l0.2898407 1.7355499l2.3152008 2.315216l1.7355499 0.28982544l25.182709 0l1.7355499 -0.28982544l2.316925 -2.315216l0 -1.7355499l-0.8694916 -29.813126l1.7372742 3.7626495l0.86776733 2.8948822l2.6050568 10.708298l1.157608 6.6575317l1.157608 2.6050568l4.052475 2.8948822l2.8948822 0l2.8948822 -1.157608l2.8948822 -4.342331l0 -2.894867l-1.4474487 -6.945648l-2.316925 -10.999863l-2.893158 -7.2354736l-4.3423157 -8.393082l-0.8677826 -1.1593323l-2.315216 -4.0507507l-6.947357 -4.342331l-4.05249 -0.57966614z" fill-rule="evenodd"/><path fill="#000000" d="m135.51448 59.39018l-1.7372589 0.28983307l-2.8948822 2.8931541l-0.2898407 2.0271072l0.2898407 2.025383l2.8948822 2.6050415l1.7372589 0.28983307l88.28006 0l2.0253754 -0.28983307l2.6050415 -2.6050415l0.2898407 -2.025383l-0.2898407 -2.0271072l-2.6050415 -2.8931541l-2.0253754 -0.28983307z" fill-rule="evenodd"/><path fill="#000000" d="m135.51448 81.09833l-1.7372589 0.28983307l-2.8948822 2.6050491l-0.2898407 2.025383l0.2898407 2.0271072l2.8948822 2.6033173l1.7372589 0.28983307l88.28006 0l2.0253754 -0.28983307l2.6050415 -2.6033173l0.2898407 -2.0271072l-0.2898407 -2.025383l-2.6050415 -2.6050491l-2.0253754 -0.28983307z" fill-rule="evenodd"/><path fill="#000000" d="m135.51448 102.51665l-1.7372589 0.28983307l-2.8948822 2.6050491l-0.2898407 2.025383l0.2898407 2.0270996l2.8948822 2.6050491l1.7372589 0.28983307l88.28006 0l2.0253754 -0.28983307l2.6050415 -2.6050491l0.2898407 -2.0270996l-0.2898407 -2.025383l-2.6050415 -2.6050491l-2.0253754 -0.28983307z" fill-rule="evenodd"/></g></svg>