<svg version="1.1" xmlns="http://www.w3.org/2000/svg" viewBox="0 0 838.6000366210938 264.2000274658203">
  <!-- svg-source:excalidraw -->
  <defs>
    <style>
      @font-face {
        font-family: "Virgil";
        src: url("https://excalidraw.com/FG_Virgil.woff2");
      }
      @font-face {
        font-family: "Cascadia";
        src: url("https://excalidraw.com/Cascadia.woff2");
      }
    </style>
  </defs>
  <rect x="0" y="0" width="838.6000366210938" height="264.2000274658203" fill="#ffffff"></rect><g transform="translate(317.0000305175781 52.000030517578125) rotate(0 118.4000244140625 64.79999542236328)"><path d="M1.256150189501156 -1.0883090443829133 C81.24185995766832 1.2769236998431346, 164.29975623532337 -0.16174330777316348, 235.2102889670185 -0.7791196424578763 M-0.5440339545563487 -0.025380293223853375 C54.702835571421566 1.7570593082408377, 111.45991090130977 0.6845058219730056, 236.5118495978977 -0.3764054648533873 M236.78636048734188 -0.7498979419469833 C239.00015915246956 44.89508596875413, 237.97616518350594 88.93559295074431, 238.722679361701 128.8984770923853 M237.10583902150393 0.79842459410429 C238.17138001649695 47.00531525201831, 237.61258766382056 94.3878574602253, 236.31203032284975 130.45872270315886 M237.65058230042257 129.45294992854386 C169.8180046989481 131.90167930975568, 103.04865528700216 128.89781326048433, 1.5041000304297378 128.29004809517355 M236.02118711018048 129.20347617794 C152.46772957309796 128.61915923445252, 70.28238478305131 128.76838337707505, -0.16696257470961415 129.43841851057346 M-0.05768419802188873 129.12606813013554 C0.3867149126744436 88.77200046139814, 0.8301586878514455 50.5370886764498, 1.9371979087591171 -1.5197462886571884 M-0.8100216314196587 129.04582058638334 C-0.22355428301528368 89.11990174803697, -0.8014658983869878 47.75000555373356, 0.26068688184022903 -0.3835266903042793" style="stroke: rgb(0, 0, 0); stroke-width: 1; fill: none;"></path></g><g transform="translate(379.4999694824219 86.40000915527344) rotate(0 53.5 28.5)"><text x="0" y="41" font-family="Virgil" font-size="36px" fill="#009ee3" text-anchor="start">Tweet</text></g><g transform="translate(39.399993896484375 12.000015258789062) rotate(0 75.60000610351562 27.600006103515625)"><path d="M88.49787749231 0.5074491761401383 C100.51570397749515 0.8043635025471143, 114.49374441399974 2.9432033648999565, 124.15791811016096 5.906496764811738 C133.8220918063222 8.86979016472352, 142.0517091815581 13.978168820391012, 146.48291966927735 18.287209575610827 C150.9141301569966 22.596250330830642, 152.69302954903895 27.47360736875558, 150.74518103647657 31.760741296130636 C148.79733252391418 36.04787522350569, 142.7248712728641 40.556263825206614, 134.795828593903 44.01001313986116 C126.86678591494187 47.4637624545157, 115.00620270796634 50.733763218088214, 103.17092496270982 52.483237184057884 C91.3356472174533 54.232711150027555, 76.3952259596678 55.07551374879628, 63.784162122363874 54.50685693567917 C51.17309828505996 53.93820012256205, 37.26614019932529 51.80075624931563, 27.504541938886305 49.07129630535519 C17.742943678447315 46.34183636139475, 9.618172913628449 42.41153043212456, 5.21457255972993 38.130097271916526 C0.8109722058314119 33.848664111708494, -0.8360414357578669 27.962930864041383, 1.0829398154951946 23.382697344106987 C3.001921066748256 18.80246382417259, 9.12318091228903 14.20409248632637, 16.7284600672483 10.648696152310151 C24.33373922220757 7.093299818293932, 35.25945856844241 3.7799522032043633, 46.71461474525082 2.050319340009672 C58.16977092205923 0.32068647681498064, 76.95237535453757 0.5138463641385899, 85.45939712809877 0.2708989731420033 C93.96641890165998 0.027951582145416737, 94.0384786353789 0.16771733727280075, 97.75674538661802 0.5926349940301527 C101.47501213785715 1.0175526507875048, 108.09748670340048 2.366711489915998, 107.76899763553354 2.820404913686115 M105.8842438342219 1.3911914375211225 C116.95066895322088 2.7733273054368697, 128.30340202906623 7.1239968136884, 135.5695157940842 10.788563585637608 C142.83562955910216 14.453130357586815, 147.75792944765072 18.50794060036212, 149.48092642432965 23.378592069216367 C151.20392340100858 28.249243538070616, 150.79276743609344 35.639078632020556, 145.90749765415774 40.012472398763094 C141.02222787222203 44.38586616550563, 130.4908986505339 47.300520041155686, 120.16930773271542 49.61895466967158 C109.84771681489694 51.937389298187476, 96.59166662208614 53.36706151198442, 83.97795214724687 53.92308016985848 C71.3642376724076 54.47909882773254, 55.901045654820614 54.4191151466826, 44.4870208836798 52.95506661691598 C33.07299611253898 51.49101808714936, 22.661704986861537 48.98774490667891, 15.493803520401968 45.13878899125877 C8.3259020539424 41.28983307583863, 3.0253932897554874 34.79056828646876, 1.479612084922394 29.861331124395136 C-0.06616911991069929 24.932093962321513, 1.3761421480010938 19.453952689763383, 6.2191162914034095 15.563366018817026 C11.062090434805725 11.67277934787067, 20.65930189757899 8.853826732276172, 30.537456945336288 6.517811098716997 C40.415611993093584 4.181795465157823, 53.103391801561415 2.309057125735753, 65.48804657794717 1.5472722174619769 C77.87270135433293 0.7854873091882008, 98.27932552305178 1.8265907873846565, 104.84538560365085 1.947101649074341 C111.41144568424993 2.0676125107640253, 104.55204462157354 2.1410963282562125, 104.88440706154161 2.270337387600083 C105.21676950150967 2.399578446943954, 107.04504842128927 2.131574811297396, 106.83956024345925 2.722548005137565" style="stroke: rgb(51, 51, 51); stroke-width: 1; fill: none;"></path></g><g transform="translate(103.300048828125 23.199981689453125) rotate(0 12.5 13)"><text x="12.5" y="19" font-family="Virgil" font-size="16px" fill="#333" text-anchor="middle">ID</text></g><g transform="translate(10 89.00001525878906) rotate(0 75.60000610351562 27.600006103515625)"><path d="M105.71350224610597 2.870133835216077 C116.84258565988576 4.282030742418605, 128.54385786754966 7.0007094212950385, 135.9774375423666 10.495535448805757 C143.41101721718354 13.990361476316476, 148.94609601741257 19.078217293434957, 150.31498029500762 23.83909000028039 C151.68386457260266 28.599962707125822, 149.30668594091733 34.77517252038424, 144.19074320793692 39.06077168987836 C139.0748004749565 43.34637085937248, 129.66273926068527 46.93757159902748, 119.61932389712506 49.552685017245096 C109.57590853356484 52.167798435462714, 96.32958543877892 54.220159516601306, 83.93025102657566 54.75145219918407 C71.5309166143724 55.28274488176684, 56.71571206597498 54.46045160182415, 45.2233174239055 52.74044111274168 C33.73092278183602 51.02043062365921, 22.43148401736277 48.016952673168106, 14.975883174158781 44.43138926468926 C7.520282330954792 40.84582585621041, 2.0010815972334584 35.93148131239524, 0.48971236468156576 31.227060661868585 C-1.0216568678703268 26.52264001134193, 0.9261642262750556 20.57787147028874, 5.907667778847426 16.20486536152933 C10.889171331419796 11.831859252769917, 20.422706049553362 7.596192347022894, 30.378733680115786 4.989024009312114 C40.33476131067821 2.3818556716013344, 53.21757246511929 1.0131948497207528, 65.64383356222199 0.5618553352646494 C78.07009465932468 0.11051582080854594, 96.71122149962801 1.670547706606241, 104.93630026273198 2.2809869225754937 C113.16137902583594 2.8914261385447464, 112.3784282355619 3.514371357591777, 114.99430614084577 4.224490631080165 C117.61018404612963 4.934609904568553, 121.45439356583205 6.042130472913693, 120.63156769443515 6.541702563505822 M53.802822190923045 0.5259594794232001 C65.12606922384678 -1.0962031608379004, 81.58953077972262 -1.3911417982412388, 93.97760648038182 -0.2569690289444395 C106.36568218104102 0.8772037403523598, 119.09098636469857 4.023182964459709, 128.13127639487826 7.3309960952039965 C137.17156642505796 10.638809225948284, 144.5305879413085 14.932466610069568, 148.21934666145998 19.58990975552129 C151.90810538161145 24.247352900973013, 153.37883240333116 30.83368731000654, 150.26382871578716 35.27565496791433 C147.14882502824315 39.717622625822116, 138.18506033882073 42.91571843280512, 129.529324536196 46.24171570296803 C120.87358873357124 49.56771297313094, 110.3443043676149 53.846471439109436, 98.32941390003869 55.231638588891784 C86.31452343246248 56.61680573867413, 69.91699222707928 56.02580920488695, 57.43998173073875 54.55271860166212 C44.96297123439822 53.079627998437296, 32.24108011946259 49.54530364142768, 23.467350921995504 46.39309496954283 C14.693621724528422 43.24088629765798, 8.3979816490113 39.67403079458394, 4.797606545936262 35.63946657035303 C1.1972314428612236 31.60490234612212, -0.7341435746734 26.81589681588471, 1.865100303545276 22.18570962415737 C4.464344181763952 17.555522432430028, 11.870543049318952 11.524813176996094, 20.393069815248317 7.858343419988984 C28.91559658117768 4.191873662981873, 47.31653286369923 1.199111570760368, 53.00026089912147 0.18689108211470185 C58.68398893454371 -0.8253294065309642, 54.240473372119475 1.7182703663353927, 54.49543802778177 1.7850204881149878 C54.75040268344407 1.851770609894583, 54.04722114699019 0.25866580295066716, 54.53004883309528 0.5873918127922728" style="stroke: rgb(51, 51, 51); stroke-width: 1; fill: none;"></path></g><g transform="translate(36.900054931640625 100.19998168945312) rotate(0 49.5 13)"><text x="49.5" y="19" font-family="Virgil" font-size="16px" fill="#333" text-anchor="middle">screen_name</text></g><g transform="translate(58.5999755859375 192.2000274658203) rotate(0 75.60000610351562 27.600006103515625)"><path d="M70.70490009214274 0.48924777599022207 C82.49850497874934 -0.22091600116698606, 97.251218005907 1.6951166542230511, 108.5524317072066 3.5974474086477457 C119.85364540850618 5.49977816307244, 131.3254663893793 8.176085300437224, 138.51218229994026 11.90323230253839 C145.69889821050123 15.630379304639556, 150.74575538682348 21.220171691466163, 151.6727271705724 25.960329421254738 C152.5996989543213 30.700487151043312, 149.54941502733848 36.267888922175516, 144.07401300243373 40.34417868126984 C138.59861097752898 44.42046844036416, 129.03812420353617 47.95197968231271, 118.8203150211439 50.41806797582068 C108.60250583875163 52.88415626932864, 95.25127818052181 54.93537225624192, 82.76715790808011 55.140708442317646 C70.28303763563841 55.34604462839337, 55.37817180683265 53.60386392600088, 43.91559338649367 51.65008509227505 C32.45301496615469 49.69630625854922, 21.15992082215872 47.045649626806416, 13.991687386046259 43.41803543996268 C6.823453949933795 39.79042125311894, 1.9345887633468866 34.51769412156314, 0.9061927698188867 29.884399971212638 C-0.12220322370911307 25.25110582086214, 2.740731213571496 19.73569046828238, 7.82131142487826 15.618270537859692 C12.901891636185024 11.500850607437002, 21.12350984559663 7.793516856792511, 31.389674037659475 5.1798803886765015 C41.65583822972232 2.5662439205604914, 62.12371506406628 0.70058774338461, 69.41829657725532 -0.0635482708363675 C76.71287809044435 -0.827684285057345, 73.71012741625111 0.5554371031187681, 75.15716311679368 0.595064303350636 C76.60419881733625 0.6346915035825038, 78.19085015917707 -0.029156296970381135, 78.10051078051077 0.1742149305548395 M61.27194613567729 -0.17962114061060674 C72.84423017467046 -1.644672303010528, 88.22920398118583 -0.8917251806816608, 100.20467419207675 0.4889555269687378 C112.18014440296767 1.8696362346191364, 124.9122121025197 4.7241981932760115, 133.12476740102278 8.104463105291785 C141.33732269952586 11.484728017307559, 146.89246821267716 16.264426354338642, 149.48000598309523 20.770544999063382 C152.0675437535133 25.276663643788122, 152.57900247116766 30.4185155489023, 148.64999402353112 35.14117497364022 C144.7209855758946 39.86383439837814, 135.6860481248955 45.69934286423438, 125.90595529727595 49.10650154749089 C116.12586246965641 52.513660230747405, 102.25166786442637 54.74409870187008, 89.96943705781386 55.58412707317927 C77.68720625120136 56.424155444488456, 63.72338822278864 55.53400973053284, 52.21257045760093 54.14667177534602 C40.70175269241322 52.759333820159206, 29.41279150083102 50.7827106644188, 20.90453046668759 47.260099342058375 C12.396269432544159 43.73748801969795, 3.9224117458791334 37.8314807492343, 1.1630042527403504 33.01100384118345 C-1.5964032403984327 28.1905269331326, 0.2889002540420549 22.520970155208595, 4.34808550785489 18.33723789375326 C8.407270761667725 14.153505632297929, 16.528795167248063 10.648544985303511, 25.51811577561736 7.908610272451451 C34.50743638398666 5.168675559599391, 52.31250625518457 3.3532613791348274, 58.284009158070674 1.8976296166409057 C64.25551206095678 0.4419978541469842, 60.93334443621242 -0.5850629398250771, 61.347133192933974 -0.8251803025120772 C61.760921949655526 -1.0652976651990773, 60.826543931001225 -0.1294533268558139, 60.76674169839998 0.45692544051890494" style="stroke: rgb(51, 51, 51); stroke-width: 1; fill: none;"></path></g><g transform="translate(89.00003051757812 203.39999389648438) rotate(0 46 13)"><text x="46" y="19" font-family="Virgil" font-size="16px" fill="#333" text-anchor="middle">created_at</text></g><g><g transform="translate(188.20004272460938 44.00001525878906) rotate(0 64.75918449833989 26.401070898678157)"><path d="M0.04889102652668953 0.8187414698302746 C21.67250634705027 9.652086064467829, 107.89255225534241 44.28095563774308, 129.4694779701531 52.96034286543727 M1.2537774390913548 -0.6692376212216915 C22.22992057889079 8.40447123826171, 106.10041971196111 44.50095407883947, 127.19077380070463 53.471379418577996" style="stroke: rgb(51, 51, 51); stroke-width: 1; fill: none;"></path></g></g><g><g transform="translate(159.39999389648438 119.20002746582031) rotate(0 78.82383686306889 -4.205456023663288)"><path d="M-0.2703142829239369 0.45924897864460945 C25.95427710736791 -0.9843730462094149, 131.08624040012558 -7.56275955165426, 157.20748477503656 -8.870161025971175 M1.3421130766533316 -0.5196768670342862 C27.522482302195083 -1.511413543925931, 131.95911214213197 -5.320901161140451, 157.91798800906167 -6.548551400806755" style="stroke: rgb(51, 51, 51); stroke-width: 1; fill: none;"></path></g></g><g><g transform="translate(210.60000610351562 215.2000274658203) rotate(0 53.69915813100528 -32.08742903915234)"><path d="M-0.8297218970954419 -0.3056946940720081 C16.880502564460038 -11.092251883695523, 88.38019960597157 -53.742524817337596, 106.21143465712666 -64.42691144421697 M-0.8200088655017317 0.25205336591228855 C17.103565082047133 -10.371465437008688, 90.1108385897614 -51.89813829838609, 108.22803815910592 -62.4392674032785" style="stroke: rgb(51, 51, 51); stroke-width: 1; fill: none;"></path></g></g><g transform="translate(638.199951171875 10) rotate(0 75.60000610351562 27.600006103515625)"><path d="M106.84997196943166 3.0373793639253037 C118.22380584498083 4.485520840162728, 129.4734945660303 7.1850070615784585, 136.934007539971 10.94468055573542 C144.3945205139117 14.704354049892382, 150.32040527723922 21.113956516970475, 151.61304981307586 25.59542032886707 C152.9056943489125 30.076884140763667, 149.8722572793072 33.80937374639881, 144.6898747549909 37.833463427115 C139.50749223067461 41.85755310783119, 130.50653997835744 46.80465004622837, 120.51875466717802 49.73995841316421 C110.5309693559986 52.67526678010005, 97.20872326729362 54.78034835948827, 84.76316288791433 55.445313628730055 C72.31760250853505 56.11027889797184, 57.38072052754544 55.603563505382446, 45.84539239090228 53.7297500286149 C34.310064254259125 51.85593655184736, 22.945808053090182 47.99714400933871, 15.551194068055388 44.202432768124794 C8.156580083020593 40.407721526910876, 3.060453561584503 35.69930442724261, 1.4777084806935221 30.961482581331406 C-0.1050366001974592 26.223660735420207, 1.1815895605194546 20.109956376803957, 6.054723582709499 15.775501692657594 C10.927857604899543 11.44104700851123, 20.476482716367165 7.556864255875844, 30.716512613833792 4.954754476453228 C40.95654251130042 2.352644697030612, 54.96007154098175 0.7493730176127696, 67.49490296750928 0.16284301612189722 C80.0297343940368 -0.4236869853689752, 97.81554518559687 0.8396840496541126, 105.92550117299893 1.435574467507994 C114.035457160401 2.0314648853618755, 113.46711477972796 3.0136839579428396, 116.15463889192164 3.7381855232451855 C118.8421630041153 4.462687088547532, 122.97593046597467 5.487447723384109, 122.05064584616099 5.78258385932207 M69.52302800096909 0.12876486778823804 C81.26479073501046 -0.7031459832981515, 96.79599176748118 -0.0013592625872573816, 108.15217475052384 1.9555800897256148 C119.5083577335665 3.9125194420384872, 130.29499903202094 7.871024687927591, 137.66012589922502 11.87040098166547 C145.0252527664291 15.86977727540335, 151.56436352787293 21.252791901162897, 152.3429359537484 25.95183785215289 C153.12150837962386 30.650883803142886, 148.01966783321978 36.12372582510021, 142.33156045447788 40.06467668760543 C136.64345307573598 44.005627550110646, 128.56417462133203 47.0687105041554, 118.21429168129703 49.59754302718418 C107.86440874126204 52.12637555021296, 92.73673582104946 54.58425684632075, 80.23226281426794 55.237671825778136 C67.72778980748642 55.891086805235524, 54.468544127118946 55.735524269627334, 43.18745364060792 53.5180329039285 C31.906363154096894 51.300541538229666, 19.8383161389456 45.930464542975876, 12.545719895201778 41.93272363158515 C5.253123651457954 37.93498272019442, 0.48239155160611236 33.679742845802885, -0.5681238218550249 29.53158743558413 C-1.618639195316162 25.383432025365376, 0.9081898305831295 21.34811972309422, 6.242627654434955 17.043791170272627 C11.57706547828678 12.739462617451032, 20.85198022478287 6.5384916940456215, 31.438503121255927 3.705616118654568 C42.02502601772898 0.8727405432635149, 63.22446061534205 0.7711997390830039, 69.7617650332733 0.04653771792630934 C76.29906945120456 -0.6781243032303852, 70.42491826800624 -0.914611410060677, 70.66232962884345 -0.6423560082855992 C70.89974098968067 -0.3701006065105214, 71.28835258211421 1.107158834166866, 71.18623319829662 1.6800701285767765" style="stroke: rgb(51, 51, 51); stroke-width: 1; fill: none;"></path></g><g transform="translate(684.2999572753906 24.600006103515625) rotate(0 29.5 13)"><text x="29.5" y="19" font-family="Virgil" font-size="16px" fill="#333" text-anchor="middle">location</text></g><g transform="translate(677.4000244140625 96.19999694824219) rotate(0 75.60000610351562 27.600006103515625)"><path d="M83.77404365549661 0.19320384908090205 C95.77795287843814 0.3623059410352377, 110.7991066371744 2.029276741987682, 120.84805486334432 4.893320535265321 C130.89700308951424 7.757364328542961, 139.25671188048506 13.095646516977126, 144.0677330125161 17.377466608746737 C148.87875414454714 21.659286700516347, 151.01278424737393 26.30393614962215, 149.7141816555306 30.58424108588299 C148.4155790636873 34.864546022143834, 143.55560123292028 39.19517549072888, 136.27611746145612 43.05929622631179 C128.99663368999197 46.923416961894695, 117.54280790145033 51.80329562671759, 106.03727902674561 53.76896549938043 C94.53175015204089 55.734635372043265, 79.7295532802702 55.47014539392016, 67.24294421322776 54.85331546228882 C54.756335146185314 54.236485530657475, 41.2727585028876 52.752352905493694, 31.117624624490965 50.067985909592366 C20.962490746094332 47.38361891369104, 11.580021739376775 42.88390208785609, 6.312140942847961 38.747113486880856 C1.0442601463191474 34.61032488590562, -1.918165393288234 29.710019381592513, -0.48966015468191415 25.247254303740956 C0.9388450839244058 20.7844892258894, 7.326220494749961 15.815516220778724, 14.88317237448588 11.970523019771509 C22.4401242542218 8.125529818764294, 33.28682808101949 4.029899678035557, 44.8520511237336 2.1772950976976695 C56.41727416644771 0.32469051735978205, 76.19486618330859 0.9762628171020827, 84.27451063077055 0.8548955377441843 C92.35415507823251 0.7335282583862858, 90.62468524416285 1.3055504803093225, 93.32991780850533 1.4490914215502784 C96.03515037284781 1.5926323627912342, 100.9474741360824 1.5055120683858612, 100.50590601682542 1.7161411851899189 M56.84958427561643 1.3792851971515354 C68.12038321824929 0.31470016112078913, 83.23813542944063 0.9372976464200253, 95.46680431734035 2.197260001515758 C107.69547320524006 3.4572223566114912, 121.56055620822858 5.679203889955636, 130.2215976030147 8.939059327725932 C138.8826389978008 12.198914765496228, 144.47174405016256 17.515471630290612, 147.43305268605698 21.756392628137533 C150.3943613219514 25.997313625984454, 150.81745742415856 30.37775467738075, 147.98944941838133 34.38458531480745 C145.1614414126041 38.391415952234155, 138.9870752212988 42.52816330901848, 130.46500465139354 45.79737645269774 C121.94293408148827 49.066589596377, 109.11143186103676 52.351092742064566, 96.85702599894974 53.999864176883015 C84.60262013686271 55.648635611701465, 69.31630155981027 56.59763225021853, 56.938569478871415 55.69000506160842 C44.56083739793256 54.7823778729983, 31.788753081076763 51.82589497383275, 22.59063351331659 48.55410104522234 C13.392513945556416 45.282307116611925, 5.2299392478107904 40.86163867288006, 1.7498520723103752 36.05924148994594 C-1.73023510319004 31.25684430701182, -1.5686133488404734 24.231379205266983, 1.7101104603140982 19.739717947617624 C4.98883426946867 15.248056689968266, 12.67894100124496 12.160767179493307, 21.422194927237804 9.10927394404979 C30.16544885323065 6.057780708606272, 48.25633929449047 2.8214475144260716, 54.16963401627116 1.4307585349565208 C60.08292873805185 0.04006955548697033, 56.357730822247866 0.9542824552183914, 56.901963257921935 0.7651400672324868 C57.446195693596 0.5759976792465823, 57.06766921091169 -0.12077427717142442, 57.43502863031557 0.29590420704109377" style="stroke: rgb(51, 51, 51); stroke-width: 1; fill: none;"></path></g><g transform="translate(718.0000305175781 110.80000305175781) rotate(0 35 13)"><text x="35" y="19" font-family="Virgil" font-size="16px" fill="#333" text-anchor="middle">hashtags</text></g><g transform="translate(660.0001220703125 199.00001525878906) rotate(0 75.60000610351562 27.600006103515625)"><path d="M57.0158030699466 0.7632757369901526 C68.45364461238275 -0.5778721013792854, 84.40680419223901 -0.3931734756879812, 96.42467121270236 0.767847957534908 C108.44253823316572 1.9288693907577972, 120.48629276208266 4.329731445247635, 129.1230051927267 7.729404336327487 C137.75971762337076 11.12907722740734, 145.1174409879542 16.631495118908994, 148.2449457965667 21.16588530401402 C151.37245060517918 25.700275489119043, 151.21388710814495 30.57904112375641, 147.8880340444016 34.93574544695764 C144.56218098065824 39.29244977015887, 137.00121219074634 43.93674037859625, 128.2898274141066 47.306111243221395 C119.57844263746688 50.67548210784654, 107.60277769195544 54.03352213843139, 95.6197253845632 55.15197063470852 C83.63667307717095 56.27041913098565, 68.51652067102803 55.24180148624205, 56.391513569753165 54.01680222088419 C44.2665064684783 52.79180295552632, 31.916482476388257 51.146246395764585, 22.869682776914004 47.80197504256134 C13.822883077439752 44.45770368935809, 5.359361796356289 38.563058126110164, 2.1107153729076487 33.9511741016647 C-1.1379310505409919 29.339290077219232, -0.0317362513735433 24.36576590266509, 3.377804236222161 20.130670895888535 C6.787344723817865 15.89557588911198, 13.794147216931956 11.880588775217452, 22.567958298481877 8.540604061005364 C31.3417693800318 5.200619346793276, 49.31699532644312 1.4881603805649017, 56.02067072552168 0.09076261061601087 C62.724346124600245 -1.30663515933288, 60.193302895012735 0.05340179965795144, 62.79001069295326 0.15621744131201964 C65.38671849089378 0.25903308296608785, 71.4011784195276 0.16594540763550591, 71.60091751316483 0.7076564605404201 M68.05640334041165 -1.2745907247406159 C79.43836636529073 -1.90897808095702, 94.81454909089088 1.211117249840552, 106.42840995869912 3.476349837070984 C118.04227082650736 5.741582424301416, 130.289107880255 8.656961339968209, 137.73956854726111 12.316804798641977 C145.19002921426724 15.976648257315745, 150.2557771281007 21.06652705566689, 151.13117396073585 25.435410589113594 C152.006570793371 29.8042941225603, 148.23221312422783 34.523131792975946, 142.99194954307194 38.53010599932221 C137.75168596191605 42.537080205668474, 129.54201261002757 46.55774487968577, 119.68959247380045 49.47725582719118 C109.83717233757332 52.39676677469659, 96.57525307189556 55.39331211214498, 83.8774287257092 56.04717168435465 C71.17960437952283 56.70103125656432, 55.15078852584567 55.548663482253595, 43.50264639668228 53.4004132604492 C31.85450426751889 51.2521630386448, 21.358419753765645 47.06612973313797, 13.988575950728844 43.15767035352829 C6.618732147692043 39.24921097391861, 0.530898161738854 34.227266403486006, -0.7164164215385256 29.949656982791122 C-1.9637310048159051 25.672047562096235, 1.0943633344861325 21.757491708765855, 6.504688451064567 17.49201382935897 C11.915013567643001 13.226535949952089, 21.444970404467178 7.156637422370954, 31.74553427793208 4.356789706349829 C42.04609815139698 1.5569419903287045, 61.92655173934877 1.2752827182897177, 68.30807169185397 0.692927533232222 C74.68959164435917 0.11057234817472639, 70.03621297987375 0.715184651948127, 70.03465399296329 0.8626585960048558 C70.03309500605282 1.0101325400615846, 68.3777188229852 1.4604873128474274, 68.29871777039118 1.577771197572595" style="stroke: rgb(51, 51, 51); stroke-width: 1; fill: none;"></path></g><g transform="translate(692.6001281738281 213.6000213623047) rotate(0 43 13)"><text x="43" y="19" font-family="Virgil" font-size="16px" fill="#333" text-anchor="middle">is_retweet</text></g><g><g transform="translate(637.0000305175781 38.4000244140625) rotate(0 -40.39535856324244 24.303689091652643)"><path d="M-0.31362854763865466 0.03637693449854851 C-14.239566398908694 8.093940533449253, -68.82421892608205 40.746130368361875, -82.44897040650248 48.571001248806716 M1.658253280017525 1.344079725947231 C-11.949717851982761 9.28314919512098, -68.5026344433489 39.10069638074065, -82.34752438714727 47.011801544036715" style="stroke: rgb(51, 51, 51); stroke-width: 1; fill: none;"></path></g></g><g><g transform="translate(677.8000793457031 126.40000915527344) rotate(0 -61.29441730758174 -4.501816329630088)"><path d="M-0.8162287406623363 0.6224594883620738 C-20.97295170749227 -1.0221207725505035, -101.04363837366303 -8.619177153458198, -121.25806168839335 -10.717250914126634 M1.4044091404415666 1.713618254866451 C-19.552682754701625 -0.0995006151931983, -103.07161830257004 -7.82832542359208, -123.99324375560508 -9.910817290935665" style="stroke: rgb(51, 51, 51); stroke-width: 1; fill: none;"></path></g></g><g><g transform="translate(660.1999816894531 224.00001525878906) rotate(0 -53.28852798780429 -31.306364709883923)"><path d="M-0.9731540612876415 0.08030758425593376 C-18.795142683635156 -10.451476910461983, -88.285611606886 -52.55285178298752, -105.8725027255714 -62.69303700402379 M0.009382770750671732 -0.9242730943299831 C-17.637393973177918 -11.083474429243553, -88.92125454317157 -52.36302922446902, -106.58643874635919 -62.29869645217433" style="stroke: rgb(51, 51, 51); stroke-width: 1; fill: none;"></path></g></g></svg>